<?xml version="1.0" encoding="UTF-8" standalone="no"?>
<!DOCTYPE svg PUBLIC "-//W3C//DTD SVG 1.1//EN"
 "http://www.w3.org/Graphics/SVG/1.1/DTD/svg11.dtd">
<!-- Generated by graphviz version 2.43.0 (0)
 -->
<!-- Title: workflow Pages: 1 -->
<svg width="814pt" height="812pt"
 viewBox="0.00 0.00 814.00 811.70" xmlns="http://www.w3.org/2000/svg" xmlns:xlink="http://www.w3.org/1999/xlink">
<g id="graph0" class="graph" transform="scale(1 1) rotate(0) translate(4 807.7)">
<title>workflow</title>
<polygon fill="white" stroke="transparent" points="-4,4 -4,-807.7 810,-807.7 810,4 -4,4"/>
<g id="clust1" class="cluster">
<title>clusterdata</title>
<polygon fill="none" stroke="purple" points="8,-630.96 8,-795.7 798,-795.7 798,-630.96 8,-630.96"/>
<text text-anchor="middle" x="403" y="-780.5" font-family="Times,serif" font-size="14.00">Data Intake</text>
</g>
<g id="clust2" class="cluster">
<title>clusterortho</title>
<polygon fill="none" stroke="green" points="341,-460.96 341,-622.96 568,-622.96 568,-460.96 341,-460.96"/>
<text text-anchor="middle" x="454.5" y="-607.76" font-family="Times,serif" font-size="14.00">Orthologs Module</text>
<text text-anchor="middle" x="454.5" y="-592.76" font-family="Times,serif" font-size="14.00">(de novo stream)</text>
</g>
<g id="clust3" class="cluster">
<title>clusteralignment</title>
<polygon fill="none" stroke="blue" points="396,-180.74 396,-452.96 636,-452.96 636,-180.74 396,-180.74"/>
<text text-anchor="middle" x="516" y="-437.76" font-family="Times,serif" font-size="14.00">Alignment Module</text>
</g>
<g id="clust4" class="cluster">
<title>clustersupermatrix</title>
<polygon fill="none" stroke="orange" points="300,-8 300,-172.74 468,-172.74 468,-8 300,-8"/>
<text text-anchor="middle" x="384" y="-157.54" font-family="Times,serif" font-size="14.00">Supermatrix Module</text>
</g>
<g id="clust5" class="cluster">
<title>clustergenetree</title>
<polygon fill="none" stroke="red" points="476,-8 476,-172.74 752,-172.74 752,-8 476,-8"/>
<text text-anchor="middle" x="614" y="-157.54" font-family="Times,serif" font-size="14.00">Genetree and Reconciliation Module</text>
</g>
<!-- exome -->
<g id="node1" class="node">
<title>exome</title>
<ellipse fill="none" stroke="black" cx="564" cy="-737.83" rx="65.79" ry="18"/>
<text text-anchor="middle" x="564" y="-734.13" font-family="Times,serif" font-size="14.00">Exome data</text>
</g>
<!-- cds -->
<g id="node5" class="node">
<title>cds</title>
<ellipse fill="none" stroke="black" cx="387" cy="-656.96" rx="78.79" ry="18"/>
<text text-anchor="middle" x="387" y="-653.26" font-family="Times,serif" font-size="14.00">CDS collection</text>
</g>
<!-- exome&#45;&gt;cds -->
<g id="edge1" class="edge">
<title>exome&#45;&gt;cds</title>
<path fill="none" stroke="black" d="M531.12,-722.18C502.76,-709.54 461.59,-691.2 430.51,-677.35"/>
<polygon fill="black" stroke="black" points="431.77,-674.08 421.21,-673.2 428.92,-680.47 431.77,-674.08"/>
</g>
<!-- transcriptome -->
<g id="node2" class="node">
<title>transcriptome</title>
<ellipse fill="none" stroke="black" cx="369" cy="-737.83" rx="111.03" ry="26.74"/>
<text text-anchor="middle" x="369" y="-741.63" font-family="Times,serif" font-size="14.00">Transcriptome data</text>
<text text-anchor="middle" x="369" y="-726.63" font-family="Times,serif" font-size="14.00">(pre&#45;assembled)</text>
</g>
<!-- transcriptome&#45;&gt;cds -->
<g id="edge2" class="edge">
<title>transcriptome&#45;&gt;cds</title>
<path fill="none" stroke="black" d="M374.99,-710.57C376.86,-702.38 378.93,-693.33 380.81,-685.08"/>
<polygon fill="black" stroke="black" points="384.26,-685.71 383.07,-675.18 377.43,-684.15 384.26,-685.71"/>
</g>
<!-- addotated -->
<g id="node3" class="node">
<title>addotated</title>
<ellipse fill="none" stroke="black" cx="128" cy="-737.83" rx="111.95" ry="26.74"/>
<text text-anchor="middle" x="128" y="-741.63" font-family="Times,serif" font-size="14.00">Annotated genomes</text>
<text text-anchor="middle" x="128" y="-726.63" font-family="Times,serif" font-size="14.00">(.gb)</text>
</g>
<!-- addotated&#45;&gt;cds -->
<g id="edge3" class="edge">
<title>addotated&#45;&gt;cds</title>
<path fill="none" stroke="black" d="M195.37,-716.31C237.79,-703.4 291.87,-686.93 331.75,-674.78"/>
<polygon fill="black" stroke="black" points="333.02,-678.06 341.57,-671.79 330.98,-671.36 333.02,-678.06"/>
</g>
<!-- ddRAD -->
<g id="node4" class="node">
<title>ddRAD</title>
<ellipse fill="none" stroke="black" cx="719" cy="-737.83" rx="71.49" ry="18"/>
<text text-anchor="middle" x="719" y="-734.13" font-family="Times,serif" font-size="14.00">ddRAD reads</text>
</g>
<!-- filtered -->
<g id="node11" class="node">
<title>filtered</title>
<ellipse fill="none" stroke="black" cx="516" cy="-215.61" rx="111.95" ry="26.74"/>
<text text-anchor="middle" x="516" y="-219.41" font-family="Times,serif" font-size="14.00">Filtered alignments</text>
<text text-anchor="middle" x="516" y="-204.41" font-family="Times,serif" font-size="14.00">(AA &amp; NT)</text>
</g>
<!-- ddRAD&#45;&gt;filtered -->
<g id="edge13" class="edge">
<title>ddRAD&#45;&gt;filtered</title>
<path fill="none" stroke="black" d="M716.11,-719.82C711.02,-688.35 701,-618.91 701,-559.96 701,-559.96 701,-559.96 701,-394.09 701,-324.25 631.49,-273.34 577.68,-244.4"/>
<polygon fill="black" stroke="black" points="579,-241.14 568.52,-239.6 575.75,-247.34 579,-241.14"/>
</g>
<!-- gene -->
<g id="node6" class="node">
<title>gene</title>
<ellipse fill="none" stroke="black" cx="422" cy="-558.96" rx="73.39" ry="18"/>
<text text-anchor="middle" x="422" y="-555.26" font-family="Times,serif" font-size="14.00">gene clusters</text>
</g>
<!-- cds&#45;&gt;gene -->
<g id="edge10" class="edge">
<title>cds&#45;&gt;gene</title>
<path fill="none" stroke="black" d="M393.26,-638.8C398.53,-624.33 406.17,-603.37 412.25,-586.7"/>
<polygon fill="black" stroke="black" points="415.66,-587.57 415.8,-576.97 409.08,-585.17 415.66,-587.57"/>
</g>
<!-- scog -->
<g id="node7" class="node">
<title>scog</title>
<ellipse fill="none" stroke="black" cx="391" cy="-486.96" rx="41.69" ry="18"/>
<text text-anchor="middle" x="391" y="-483.26" font-family="Times,serif" font-size="14.00">SC&#45;OG</text>
</g>
<!-- gene&#45;&gt;scog -->
<g id="edge4" class="edge">
<title>gene&#45;&gt;scog</title>
<path fill="none" stroke="black" d="M414.5,-541.02C410.92,-532.93 406.55,-523.08 402.56,-514.07"/>
<polygon fill="black" stroke="black" points="405.68,-512.48 398.44,-504.75 399.28,-515.31 405.68,-512.48"/>
</g>
<!-- snap -->
<g id="node8" class="node">
<title>snap</title>
<ellipse fill="none" stroke="black" cx="505" cy="-486.96" rx="54.69" ry="18"/>
<text text-anchor="middle" x="505" y="-483.26" font-family="Times,serif" font-size="14.00">SNAP&#45;OG</text>
</g>
<!-- gene&#45;&gt;snap -->
<g id="edge5" class="edge">
<title>gene&#45;&gt;snap</title>
<path fill="none" stroke="black" d="M441.67,-541.37C452.58,-532.17 466.29,-520.6 478.17,-510.59"/>
<polygon fill="black" stroke="black" points="480.65,-513.07 486.04,-503.95 476.14,-507.72 480.65,-513.07"/>
</g>
<!-- unaligned -->
<g id="node9" class="node">
<title>unaligned</title>
<ellipse fill="none" stroke="black" cx="505" cy="-395.09" rx="96.75" ry="26.74"/>
<text text-anchor="middle" x="505" y="-398.89" font-family="Times,serif" font-size="14.00">Unaligned genes</text>
<text text-anchor="middle" x="505" y="-383.89" font-family="Times,serif" font-size="14.00">(AA &amp; NT)</text>
</g>
<!-- scog&#45;&gt;unaligned -->
<g id="edge11" class="edge">
<title>scog&#45;&gt;unaligned</title>
<path fill="none" stroke="black" d="M410.08,-470.92C425.28,-458.94 447.05,-441.77 465.92,-426.9"/>
<polygon fill="black" stroke="black" points="468.11,-429.63 473.8,-420.69 463.78,-424.13 468.11,-429.63"/>
</g>
<!-- snap&#45;&gt;unaligned -->
<g id="edge12" class="edge">
<title>snap&#45;&gt;unaligned</title>
<path fill="none" stroke="black" d="M505,-468.63C505,-458.35 505,-444.92 505,-432.42"/>
<polygon fill="black" stroke="black" points="508.5,-432.22 505,-422.22 501.5,-432.22 508.5,-432.22"/>
</g>
<!-- genealignments -->
<g id="node10" class="node">
<title>genealignments</title>
<ellipse fill="none" stroke="black" cx="509" cy="-305.35" rx="96.75" ry="26.74"/>
<text text-anchor="middle" x="509" y="-309.15" font-family="Times,serif" font-size="14.00">Gene alignments</text>
<text text-anchor="middle" x="509" y="-294.15" font-family="Times,serif" font-size="14.00">(AA &amp; NT)</text>
</g>
<!-- unaligned&#45;&gt;genealignments -->
<g id="edge6" class="edge">
<title>unaligned&#45;&gt;genealignments</title>
<path fill="none" stroke="black" d="M506.2,-367.77C506.56,-359.8 506.97,-350.91 507.36,-342.42"/>
<polygon fill="black" stroke="black" points="510.86,-342.5 507.81,-332.35 503.86,-342.18 510.86,-342.5"/>
</g>
<!-- genealignments&#45;&gt;filtered -->
<g id="edge7" class="edge">
<title>genealignments&#45;&gt;filtered</title>
<path fill="none" stroke="black" d="M511.1,-278.03C511.74,-270.06 512.45,-261.17 513.12,-252.68"/>
<polygon fill="black" stroke="black" points="516.62,-252.86 513.93,-242.61 509.64,-252.3 516.62,-252.86"/>
</g>
<!-- supermatrix -->
<g id="node12" class="node">
<title>supermatrix</title>
<ellipse fill="none" stroke="black" cx="384" cy="-114.87" rx="75.82" ry="26.74"/>
<text text-anchor="middle" x="384" y="-118.67" font-family="Times,serif" font-size="14.00">Supermatrix</text>
<text text-anchor="middle" x="384" y="-103.67" font-family="Times,serif" font-size="14.00">(AA &amp; NT)</text>
</g>
<!-- filtered&#45;&gt;supermatrix -->
<g id="edge14" class="edge">
<title>filtered&#45;&gt;supermatrix</title>
<path fill="none" stroke="black" d="M482.69,-189.69C464.73,-176.26 442.44,-159.59 423.6,-145.49"/>
<polygon fill="black" stroke="black" points="425.59,-142.61 415.48,-139.42 421.39,-148.21 425.59,-142.61"/>
</g>
<!-- genetrees -->
<g id="node14" class="node">
<title>genetrees</title>
<ellipse fill="none" stroke="black" cx="561" cy="-114.87" rx="77.15" ry="26.74"/>
<text text-anchor="middle" x="561" y="-118.67" font-family="Times,serif" font-size="14.00">Gene Trees</text>
<text text-anchor="middle" x="561" y="-103.67" font-family="Times,serif" font-size="14.00">(AA &amp;/or NT)</text>
</g>
<!-- filtered&#45;&gt;genetrees -->
<g id="edge15" class="edge">
<title>filtered&#45;&gt;genetrees</title>
<path fill="none" stroke="black" d="M527.82,-188.67C533.09,-177.1 539.38,-163.3 545.06,-150.85"/>
<polygon fill="black" stroke="black" points="548.29,-152.19 549.26,-141.64 541.92,-149.29 548.29,-152.19"/>
</g>
<!-- phy1 -->
<g id="node13" class="node">
<title>phy1</title>
<ellipse fill="none" stroke="black" cx="384" cy="-34" rx="67.69" ry="18"/>
<text text-anchor="middle" x="384" y="-30.3" font-family="Times,serif" font-size="14.00">Phylogeny 1</text>
</g>
<!-- supermatrix&#45;&gt;phy1 -->
<g id="edge8" class="edge">
<title>supermatrix&#45;&gt;phy1</title>
<path fill="none" stroke="black" d="M384,-87.61C384,-79.51 384,-70.57 384,-62.39"/>
<polygon fill="black" stroke="black" points="387.5,-62.22 384,-52.22 380.5,-62.22 387.5,-62.22"/>
</g>
<!-- phy2 -->
<g id="node15" class="node">
<title>phy2</title>
<ellipse fill="none" stroke="black" cx="561" cy="-34" rx="67.69" ry="18"/>
<text text-anchor="middle" x="561" y="-30.3" font-family="Times,serif" font-size="14.00">Phylogeny 2</text>
</g>
<!-- genetrees&#45;&gt;phy2 -->
<g id="edge9" class="edge">
<title>genetrees&#45;&gt;phy2</title>
<path fill="none" stroke="black" d="M561,-87.61C561,-79.51 561,-70.57 561,-62.39"/>
<polygon fill="black" stroke="black" points="564.5,-62.22 561,-52.22 557.5,-62.22 564.5,-62.22"/>
</g>
</g>
</svg>
