<?xml version="1.0" encoding="UTF-8" standalone="no"?>
<!DOCTYPE svg PUBLIC "-//W3C//DTD SVG 1.1//EN" "http://www.w3.org/Graphics/SVG/1.1/DTD/svg11.dtd">
<svg width="100%" height="100%" viewBox="0 0 1280 640" version="1.1" xmlns="http://www.w3.org/2000/svg" xmlns:xlink="http://www.w3.org/1999/xlink" xml:space="preserve" xmlns:serif="http://www.serif.com/" style="fill-rule:evenodd;clip-rule:evenodd;stroke-linejoin:round;stroke-miterlimit:2;">
    <rect id="Artboard1" x="0" y="0" width="1280" height="640" style="fill:none;"/>
    <g id="Artboard11" serif:id="Artboard1">
        <g transform="matrix(22.575,0,0,22.575,-13301.4,-3746.84)">
            <g transform="matrix(2.38946,0,0,2.38946,599.127,186.893)">
                <path d="M0.167,-0.328C0.194,-0.362 0.226,-0.385 0.261,-0.385C0.322,-0.385 0.378,-0.326 0.378,-0.208C0.378,-0.13 0.344,-0.013 0.237,-0.013C0.22,-0.013 0.191,-0.018 0.174,-0.033C0.155,-0.05 0.15,-0.066 0.15,-0.1C0.15,-0.1 0.15,-0.226 0.152,-0.276C0.153,-0.296 0.156,-0.314 0.167,-0.328ZM0.159,-0.351C0.156,-0.348 0.15,-0.347 0.15,-0.354C0.15,-0.388 0.153,-0.415 0.153,-0.415C0.153,-0.419 0.149,-0.421 0.141,-0.421C0.114,-0.411 0.084,-0.403 0.018,-0.394C0.016,-0.388 0.018,-0.383 0.02,-0.377C0.071,-0.372 0.08,-0.366 0.082,-0.312C0.084,-0.262 0.084,0.088 0.082,0.138C0.079,0.217 0.072,0.222 0.014,0.225C0.008,0.231 0.008,0.24 0.014,0.246C0.054,0.245 0.077,0.241 0.117,0.241C0.161,0.241 0.189,0.245 0.23,0.246C0.236,0.24 0.236,0.231 0.23,0.225C0.162,0.221 0.155,0.217 0.152,0.138C0.15,0.088 0.15,0.002 0.15,0.002C0.15,-0.01 0.155,-0.009 0.165,-0.005C0.188,0.004 0.213,0.01 0.243,0.01C0.296,0.01 0.344,-0.007 0.383,-0.044C0.428,-0.088 0.454,-0.157 0.454,-0.234C0.454,-0.345 0.382,-0.419 0.285,-0.419C0.227,-0.419 0.192,-0.394 0.159,-0.351Z" style="fill-rule:nonzero;"/>
            </g>
            <g transform="matrix(2.38946,0,0,2.38946,600.302,186.893)">
                <path d="M0.157,-0.273C0.157,-0.293 0.165,-0.305 0.173,-0.313C0.209,-0.349 0.259,-0.389 0.297,-0.389C0.316,-0.389 0.337,-0.377 0.348,-0.355C0.358,-0.336 0.361,-0.29 0.362,-0.261C0.364,-0.211 0.364,-0.154 0.362,-0.104C0.359,-0.026 0.353,-0.023 0.303,-0.018C0.298,-0.012 0.298,-0.001 0.303,0.005C0.343,0.004 0.36,-0 0.398,-0C0.437,-0 0.455,0.004 0.496,0.005C0.501,-0.001 0.501,-0.012 0.496,-0.018C0.443,-0.023 0.435,-0.026 0.432,-0.104C0.43,-0.154 0.43,-0.208 0.432,-0.258C0.434,-0.31 0.431,-0.357 0.409,-0.386C0.393,-0.407 0.363,-0.419 0.33,-0.419C0.283,-0.419 0.224,-0.406 0.166,-0.341C0.163,-0.337 0.156,-0.328 0.156,-0.341C0.156,-0.341 0.157,-0.549 0.159,-0.599C0.162,-0.661 0.161,-0.654 0.163,-0.689C0.163,-0.696 0.16,-0.698 0.151,-0.698C0.127,-0.688 0.061,-0.676 0.023,-0.673C0.021,-0.665 0.023,-0.66 0.029,-0.654C0.079,-0.651 0.087,-0.656 0.09,-0.576C0.092,-0.516 0.092,-0.164 0.09,-0.104C0.087,-0.025 0.078,-0.022 0.023,-0.018C0.017,-0.012 0.017,-0.001 0.023,0.005C0.062,0.004 0.084,-0 0.125,-0C0.162,-0 0.176,0.004 0.216,0.005C0.222,-0.001 0.222,-0.012 0.216,-0.018C0.168,-0.022 0.162,-0.025 0.159,-0.104C0.157,-0.154 0.157,-0.273 0.157,-0.273Z" style="fill-rule:nonzero;"/>
            </g>
            <g transform="matrix(2.38946,0,0,2.38946,601.523,186.893)">
                <path d="M0.185,0.173C0.2,0.146 0.213,0.119 0.225,0.091C0.301,-0.093 0.351,-0.211 0.402,-0.318C0.415,-0.346 0.45,-0.388 0.485,-0.391C0.491,-0.397 0.491,-0.408 0.485,-0.414C0.461,-0.411 0.44,-0.409 0.417,-0.409C0.395,-0.409 0.361,-0.411 0.33,-0.414C0.324,-0.408 0.324,-0.397 0.33,-0.391C0.36,-0.388 0.394,-0.371 0.379,-0.337L0.284,-0.118C0.268,-0.082 0.264,-0.082 0.248,-0.119L0.163,-0.317C0.146,-0.357 0.137,-0.386 0.195,-0.391C0.201,-0.397 0.201,-0.408 0.195,-0.414C0.165,-0.412 0.115,-0.409 0.087,-0.409C0.067,-0.409 0.029,-0.412 0.01,-0.414C0.004,-0.408 0.004,-0.397 0.01,-0.391C0.052,-0.387 0.064,-0.369 0.09,-0.308L0.198,-0.057C0.219,-0.009 0.221,0.025 0.211,0.052C0.2,0.084 0.187,0.11 0.173,0.14C0.163,0.159 0.142,0.178 0.118,0.178C0.105,0.178 0.097,0.173 0.087,0.173C0.059,0.173 0.048,0.194 0.048,0.206C0.048,0.226 0.067,0.241 0.093,0.241C0.113,0.241 0.151,0.234 0.185,0.173Z" style="fill-rule:nonzero;"/>
            </g>
            <g transform="matrix(2.38946,0,0,2.38946,602.706,186.893)">
                <path d="M0.093,-0.103C0.091,-0.024 0.082,-0.021 0.024,-0.018C0.018,-0.012 0.018,-0.001 0.024,0.005C0.064,0.004 0.088,-0 0.129,-0C0.17,-0 0.194,0.004 0.235,0.005C0.241,-0.001 0.241,-0.012 0.235,-0.018C0.177,-0.021 0.168,-0.024 0.166,-0.103C0.165,-0.14 0.164,-0.233 0.164,-0.329C0.164,-0.44 0.165,-0.556 0.166,-0.599C0.167,-0.661 0.17,-0.689 0.17,-0.689C0.17,-0.696 0.166,-0.698 0.157,-0.698C0.133,-0.688 0.067,-0.676 0.029,-0.673C0.027,-0.665 0.026,-0.66 0.032,-0.654C0.082,-0.651 0.09,-0.646 0.093,-0.576C0.095,-0.538 0.096,-0.448 0.096,-0.355C0.096,-0.252 0.094,-0.145 0.093,-0.103Z" style="fill-rule:nonzero;"/>
            </g>
            <g transform="matrix(2.38946,0,0,2.38946,603.311,186.893)">
                <path d="M0.04,-0.195C0.04,-0.098 0.105,0.01 0.24,0.01C0.301,0.01 0.347,-0.012 0.38,-0.044C0.423,-0.086 0.442,-0.146 0.442,-0.204C0.442,-0.303 0.388,-0.419 0.242,-0.419C0.179,-0.419 0.128,-0.393 0.093,-0.352C0.058,-0.311 0.04,-0.255 0.04,-0.195ZM0.228,-0.396C0.31,-0.396 0.366,-0.311 0.366,-0.174C0.366,-0.054 0.299,-0.013 0.254,-0.013C0.155,-0.013 0.116,-0.144 0.116,-0.217C0.116,-0.3 0.142,-0.396 0.228,-0.396Z" style="fill-rule:nonzero;"/>
            </g>
            <g transform="matrix(2.38946,0,0,2.38946,604.462,186.893)">
                <path d="M0.307,-0.266C0.307,-0.177 0.259,-0.15 0.224,-0.15C0.144,-0.15 0.132,-0.227 0.132,-0.288C0.132,-0.355 0.16,-0.396 0.212,-0.396C0.272,-0.396 0.307,-0.345 0.307,-0.266ZM0.126,0.01C0.136,0.013 0.152,0.014 0.164,0.014C0.194,0.014 0.221,0.011 0.234,0.011C0.282,0.011 0.314,0.013 0.342,0.028C0.379,0.049 0.391,0.072 0.391,0.097C0.391,0.166 0.297,0.221 0.211,0.221C0.147,0.221 0.093,0.174 0.093,0.109C0.093,0.077 0.098,0.043 0.126,0.01ZM0.423,-0.369C0.441,-0.369 0.459,-0.386 0.459,-0.405C0.459,-0.425 0.441,-0.44 0.415,-0.44C0.39,-0.44 0.344,-0.424 0.319,-0.392C0.308,-0.4 0.276,-0.419 0.22,-0.419C0.135,-0.419 0.06,-0.362 0.06,-0.274C0.06,-0.223 0.08,-0.193 0.107,-0.167C0.08,-0.144 0.055,-0.112 0.055,-0.071C0.055,-0.031 0.08,-0.007 0.109,0.003C0.058,0.034 0.029,0.087 0.029,0.128C0.029,0.211 0.109,0.246 0.182,0.246C0.311,0.246 0.45,0.175 0.45,0.072C0.45,0.041 0.436,0.014 0.408,-0.009C0.371,-0.04 0.304,-0.041 0.269,-0.041C0.252,-0.041 0.228,-0.039 0.205,-0.036C0.191,-0.035 0.181,-0.034 0.176,-0.034C0.148,-0.034 0.112,-0.059 0.112,-0.094C0.112,-0.113 0.122,-0.134 0.133,-0.15C0.156,-0.137 0.182,-0.127 0.219,-0.127C0.303,-0.127 0.379,-0.183 0.379,-0.276C0.379,-0.321 0.367,-0.346 0.339,-0.375C0.346,-0.385 0.366,-0.398 0.378,-0.398C0.385,-0.398 0.391,-0.395 0.397,-0.386C0.401,-0.378 0.413,-0.369 0.423,-0.369Z" style="fill-rule:nonzero;"/>
            </g>
            <g transform="matrix(2.38946,0,0,2.38946,605.616,186.893)">
                <path d="M0.114,-0.259C0.132,-0.367 0.195,-0.396 0.231,-0.396C0.277,-0.396 0.321,-0.357 0.321,-0.277C0.321,-0.268 0.317,-0.264 0.307,-0.264L0.114,-0.259ZM0.378,-0.089C0.343,-0.053 0.31,-0.027 0.255,-0.027C0.221,-0.027 0.171,-0.047 0.141,-0.096C0.122,-0.127 0.111,-0.175 0.111,-0.23L0.379,-0.234C0.39,-0.234 0.397,-0.241 0.397,-0.251C0.397,-0.331 0.364,-0.419 0.231,-0.419C0.141,-0.419 0.035,-0.338 0.035,-0.193C0.035,-0.14 0.049,-0.087 0.08,-0.051C0.112,-0.013 0.162,0.01 0.231,0.01C0.303,0.01 0.36,-0.023 0.398,-0.073C0.395,-0.083 0.389,-0.088 0.378,-0.089Z" style="fill-rule:nonzero;"/>
            </g>
            <g transform="matrix(2.38946,0,0,2.38946,606.656,186.893)">
                <path d="M0.175,-0.341C0.172,-0.337 0.166,-0.328 0.166,-0.341C0.166,-0.37 0.171,-0.414 0.171,-0.414C0.171,-0.419 0.167,-0.421 0.159,-0.421C0.132,-0.411 0.099,-0.403 0.033,-0.394C0.031,-0.388 0.033,-0.383 0.035,-0.377C0.086,-0.372 0.095,-0.368 0.097,-0.312C0.099,-0.261 0.098,-0.153 0.097,-0.104C0.095,-0.026 0.087,-0.023 0.03,-0.018C0.024,-0.012 0.024,-0.001 0.03,0.005C0.069,0.004 0.092,-0 0.133,-0C0.17,-0 0.184,0.004 0.224,0.005C0.23,-0.001 0.23,-0.012 0.224,-0.018C0.175,-0.023 0.169,-0.026 0.167,-0.104C0.166,-0.151 0.165,-0.236 0.167,-0.283C0.168,-0.303 0.175,-0.314 0.183,-0.323C0.219,-0.358 0.272,-0.379 0.309,-0.379C0.328,-0.379 0.349,-0.367 0.36,-0.345C0.37,-0.326 0.369,-0.3 0.37,-0.271C0.372,-0.221 0.372,-0.154 0.37,-0.104C0.367,-0.026 0.361,-0.023 0.311,-0.018C0.306,-0.012 0.306,-0.001 0.311,0.005C0.351,0.004 0.369,-0 0.407,-0C0.446,-0 0.464,0.004 0.505,0.005C0.51,-0.001 0.51,-0.012 0.505,-0.018C0.452,-0.023 0.444,-0.026 0.441,-0.104C0.439,-0.154 0.439,-0.208 0.441,-0.258C0.442,-0.273 0.442,-0.288 0.442,-0.301C0.442,-0.335 0.439,-0.365 0.423,-0.386C0.407,-0.407 0.375,-0.419 0.342,-0.419C0.295,-0.419 0.233,-0.406 0.175,-0.341Z" style="fill-rule:nonzero;"/>
            </g>
            <g transform="matrix(2.38946,0,0,2.38946,607.91,186.893)">
                <path d="M0.04,-0.195C0.04,-0.098 0.105,0.01 0.24,0.01C0.301,0.01 0.347,-0.012 0.38,-0.044C0.423,-0.086 0.442,-0.146 0.442,-0.204C0.442,-0.303 0.388,-0.419 0.242,-0.419C0.179,-0.419 0.128,-0.393 0.093,-0.352C0.058,-0.311 0.04,-0.255 0.04,-0.195ZM0.228,-0.396C0.31,-0.396 0.366,-0.311 0.366,-0.174C0.366,-0.054 0.299,-0.013 0.254,-0.013C0.155,-0.013 0.116,-0.144 0.116,-0.217C0.116,-0.3 0.142,-0.396 0.228,-0.396Z" style="fill-rule:nonzero;"/>
            </g>
            <g transform="matrix(2.38946,0,0,2.38946,609.062,186.893)">
                <path d="M0.18,-0.313C0.218,-0.35 0.261,-0.369 0.29,-0.369C0.326,-0.369 0.352,-0.346 0.355,-0.282C0.357,-0.232 0.357,-0.154 0.355,-0.104C0.352,-0.026 0.347,-0.022 0.296,-0.018C0.291,-0.012 0.291,-0.001 0.296,0.005C0.328,0.002 0.36,-0 0.391,-0C0.421,-0 0.447,0.002 0.483,0.005C0.488,-0.001 0.488,-0.012 0.483,-0.018C0.435,-0.022 0.429,-0.026 0.426,-0.104C0.424,-0.154 0.424,-0.218 0.426,-0.268C0.427,-0.281 0.426,-0.295 0.425,-0.306C0.471,-0.357 0.521,-0.369 0.558,-0.369C0.594,-0.369 0.616,-0.348 0.619,-0.284C0.621,-0.234 0.621,-0.154 0.619,-0.104C0.616,-0.026 0.61,-0.022 0.56,-0.018C0.555,-0.012 0.555,-0.001 0.56,0.005C0.585,0.003 0.625,-0 0.655,-0C0.686,-0 0.726,0.003 0.751,0.005C0.756,-0.001 0.756,-0.012 0.751,-0.018C0.699,-0.022 0.693,-0.026 0.69,-0.104C0.688,-0.154 0.688,-0.217 0.69,-0.267C0.693,-0.352 0.677,-0.419 0.593,-0.419C0.544,-0.419 0.478,-0.4 0.428,-0.348C0.425,-0.345 0.42,-0.341 0.418,-0.349C0.409,-0.388 0.374,-0.419 0.324,-0.419C0.269,-0.419 0.215,-0.385 0.173,-0.341C0.17,-0.338 0.163,-0.332 0.163,-0.341C0.163,-0.37 0.168,-0.414 0.168,-0.414C0.168,-0.419 0.164,-0.421 0.156,-0.421C0.129,-0.411 0.095,-0.403 0.029,-0.394C0.027,-0.388 0.028,-0.382 0.031,-0.377C0.083,-0.372 0.091,-0.367 0.093,-0.312C0.095,-0.262 0.095,-0.154 0.093,-0.104C0.09,-0.026 0.08,-0.022 0.028,-0.018C0.022,-0.012 0.022,-0.001 0.028,0.005C0.055,0.003 0.098,-0 0.129,-0C0.156,-0 0.195,0.003 0.221,0.005C0.227,-0.001 0.227,-0.012 0.221,-0.018C0.173,-0.023 0.167,-0.026 0.164,-0.104C0.162,-0.154 0.162,-0.223 0.164,-0.273C0.165,-0.293 0.172,-0.305 0.18,-0.313Z" style="fill-rule:nonzero;"/>
            </g>
            <g transform="matrix(2.38946,0,0,2.38946,610.904,186.893)">
                <path d="M0.08,-0.599C0.08,-0.573 0.104,-0.547 0.128,-0.547C0.156,-0.547 0.18,-0.574 0.18,-0.595C0.18,-0.619 0.159,-0.647 0.132,-0.647C0.108,-0.647 0.08,-0.623 0.08,-0.599ZM0.176,-0.109C0.175,-0.139 0.174,-0.19 0.174,-0.22C0.174,-0.25 0.175,-0.281 0.176,-0.311C0.179,-0.361 0.182,-0.415 0.182,-0.415C0.182,-0.419 0.177,-0.422 0.169,-0.422C0.141,-0.411 0.105,-0.402 0.036,-0.393C0.034,-0.387 0.036,-0.381 0.038,-0.375C0.093,-0.37 0.1,-0.365 0.103,-0.307C0.105,-0.277 0.105,-0.251 0.105,-0.221C0.105,-0.191 0.104,-0.139 0.103,-0.109C0.101,-0.026 0.092,-0.023 0.031,-0.018C0.025,-0.012 0.025,-0.001 0.031,0.005C0.057,0.003 0.11,-0 0.14,-0C0.171,-0 0.218,0.003 0.248,0.005C0.254,-0.001 0.254,-0.012 0.248,-0.018C0.187,-0.022 0.179,-0.025 0.176,-0.109Z" style="fill-rule:nonzero;"/>
            </g>
            <g transform="matrix(2.38946,0,0,2.38946,611.542,186.893)">
                <path d="M0.389,-0.087C0.385,-0.096 0.383,-0.096 0.374,-0.097C0.342,-0.055 0.291,-0.027 0.25,-0.027C0.175,-0.027 0.111,-0.099 0.111,-0.219C0.111,-0.324 0.168,-0.396 0.231,-0.396C0.287,-0.396 0.302,-0.353 0.306,-0.32C0.309,-0.293 0.322,-0.286 0.342,-0.286C0.362,-0.286 0.388,-0.298 0.388,-0.328C0.388,-0.38 0.328,-0.419 0.236,-0.419C0.142,-0.419 0.035,-0.333 0.035,-0.198C0.035,-0.075 0.109,0.01 0.229,0.01C0.286,0.01 0.341,-0.009 0.389,-0.087Z" style="fill-rule:nonzero;"/>
            </g>
            <g transform="matrix(2.38946,0,0,2.38946,613.141,186.893)">
                <path d="M0.293,-0.212L0.288,-0.095C0.288,-0.083 0.283,-0.077 0.275,-0.071C0.25,-0.051 0.216,-0.02 0.189,-0.02C0.141,-0.02 0.115,-0.062 0.115,-0.092C0.115,-0.13 0.14,-0.175 0.211,-0.192L0.293,-0.212ZM0.288,-0.046C0.294,-0.026 0.309,0.01 0.36,0.01C0.407,0.01 0.441,-0.028 0.441,-0.033C0.441,-0.04 0.431,-0.046 0.427,-0.046C0.421,-0.046 0.418,-0.03 0.398,-0.03C0.361,-0.03 0.356,-0.06 0.358,-0.115L0.363,-0.257C0.368,-0.391 0.297,-0.419 0.227,-0.419C0.149,-0.419 0.065,-0.369 0.065,-0.318C0.065,-0.295 0.081,-0.279 0.103,-0.279C0.131,-0.279 0.147,-0.304 0.147,-0.316C0.147,-0.323 0.146,-0.329 0.144,-0.333C0.143,-0.336 0.142,-0.342 0.142,-0.352C0.142,-0.382 0.183,-0.397 0.219,-0.397C0.251,-0.397 0.294,-0.371 0.294,-0.263C0.294,-0.256 0.292,-0.243 0.289,-0.242L0.199,-0.222C0.106,-0.201 0.042,-0.153 0.042,-0.088C0.042,-0.015 0.094,0.01 0.161,0.01C0.205,0.01 0.225,0.001 0.267,-0.031L0.286,-0.046L0.288,-0.046Z" style="fill-rule:nonzero;"/>
            </g>
            <g transform="matrix(2.38946,0,0,2.38946,614.226,186.893)">
                <path d="M0.175,-0.341C0.172,-0.337 0.166,-0.328 0.166,-0.341C0.166,-0.37 0.171,-0.414 0.171,-0.414C0.171,-0.419 0.167,-0.421 0.159,-0.421C0.132,-0.411 0.099,-0.403 0.033,-0.394C0.031,-0.388 0.033,-0.383 0.035,-0.377C0.086,-0.372 0.095,-0.368 0.097,-0.312C0.099,-0.261 0.098,-0.153 0.097,-0.104C0.095,-0.026 0.087,-0.023 0.03,-0.018C0.024,-0.012 0.024,-0.001 0.03,0.005C0.069,0.004 0.092,-0 0.133,-0C0.17,-0 0.184,0.004 0.224,0.005C0.23,-0.001 0.23,-0.012 0.224,-0.018C0.175,-0.023 0.169,-0.026 0.167,-0.104C0.166,-0.151 0.165,-0.236 0.167,-0.283C0.168,-0.303 0.175,-0.314 0.183,-0.323C0.219,-0.358 0.272,-0.379 0.309,-0.379C0.328,-0.379 0.349,-0.367 0.36,-0.345C0.37,-0.326 0.369,-0.3 0.37,-0.271C0.372,-0.221 0.372,-0.154 0.37,-0.104C0.367,-0.026 0.361,-0.023 0.311,-0.018C0.306,-0.012 0.306,-0.001 0.311,0.005C0.351,0.004 0.369,-0 0.407,-0C0.446,-0 0.464,0.004 0.505,0.005C0.51,-0.001 0.51,-0.012 0.505,-0.018C0.452,-0.023 0.444,-0.026 0.441,-0.104C0.439,-0.154 0.439,-0.208 0.441,-0.258C0.442,-0.273 0.442,-0.288 0.442,-0.301C0.442,-0.335 0.439,-0.365 0.423,-0.386C0.407,-0.407 0.375,-0.419 0.342,-0.419C0.295,-0.419 0.233,-0.406 0.175,-0.341Z" style="fill-rule:nonzero;"/>
            </g>
            <g transform="matrix(2.38946,0,0,2.38946,615.48,186.893)">
                <path d="M0.293,-0.212L0.288,-0.095C0.288,-0.083 0.283,-0.077 0.275,-0.071C0.25,-0.051 0.216,-0.02 0.189,-0.02C0.141,-0.02 0.115,-0.062 0.115,-0.092C0.115,-0.13 0.14,-0.175 0.211,-0.192L0.293,-0.212ZM0.288,-0.046C0.294,-0.026 0.309,0.01 0.36,0.01C0.407,0.01 0.441,-0.028 0.441,-0.033C0.441,-0.04 0.431,-0.046 0.427,-0.046C0.421,-0.046 0.418,-0.03 0.398,-0.03C0.361,-0.03 0.356,-0.06 0.358,-0.115L0.363,-0.257C0.368,-0.391 0.297,-0.419 0.227,-0.419C0.149,-0.419 0.065,-0.369 0.065,-0.318C0.065,-0.295 0.081,-0.279 0.103,-0.279C0.131,-0.279 0.147,-0.304 0.147,-0.316C0.147,-0.323 0.146,-0.329 0.144,-0.333C0.143,-0.336 0.142,-0.342 0.142,-0.352C0.142,-0.382 0.183,-0.397 0.219,-0.397C0.251,-0.397 0.294,-0.371 0.294,-0.263C0.294,-0.256 0.292,-0.243 0.289,-0.242L0.199,-0.222C0.106,-0.201 0.042,-0.153 0.042,-0.088C0.042,-0.015 0.094,0.01 0.161,0.01C0.205,0.01 0.225,0.001 0.267,-0.031L0.286,-0.046L0.288,-0.046Z" style="fill-rule:nonzero;"/>
            </g>
            <g transform="matrix(2.38946,0,0,2.38946,616.565,186.893)">
                <path d="M0.093,-0.103C0.091,-0.024 0.082,-0.021 0.024,-0.018C0.018,-0.012 0.018,-0.001 0.024,0.005C0.064,0.004 0.088,-0 0.129,-0C0.17,-0 0.194,0.004 0.235,0.005C0.241,-0.001 0.241,-0.012 0.235,-0.018C0.177,-0.021 0.168,-0.024 0.166,-0.103C0.165,-0.14 0.164,-0.233 0.164,-0.329C0.164,-0.44 0.165,-0.556 0.166,-0.599C0.167,-0.661 0.17,-0.689 0.17,-0.689C0.17,-0.696 0.166,-0.698 0.157,-0.698C0.133,-0.688 0.067,-0.676 0.029,-0.673C0.027,-0.665 0.026,-0.66 0.032,-0.654C0.082,-0.651 0.09,-0.646 0.093,-0.576C0.095,-0.538 0.096,-0.448 0.096,-0.355C0.096,-0.252 0.094,-0.145 0.093,-0.103Z" style="fill-rule:nonzero;"/>
            </g>
            <g transform="matrix(2.38946,0,0,2.38946,617.169,186.893)">
                <path d="M0.185,0.173C0.2,0.146 0.213,0.119 0.225,0.091C0.301,-0.093 0.351,-0.211 0.402,-0.318C0.415,-0.346 0.45,-0.388 0.485,-0.391C0.491,-0.397 0.491,-0.408 0.485,-0.414C0.461,-0.411 0.44,-0.409 0.417,-0.409C0.395,-0.409 0.361,-0.411 0.33,-0.414C0.324,-0.408 0.324,-0.397 0.33,-0.391C0.36,-0.388 0.394,-0.371 0.379,-0.337L0.284,-0.118C0.268,-0.082 0.264,-0.082 0.248,-0.119L0.163,-0.317C0.146,-0.357 0.137,-0.386 0.195,-0.391C0.201,-0.397 0.201,-0.408 0.195,-0.414C0.165,-0.412 0.115,-0.409 0.087,-0.409C0.067,-0.409 0.029,-0.412 0.01,-0.414C0.004,-0.408 0.004,-0.397 0.01,-0.391C0.052,-0.387 0.064,-0.369 0.09,-0.308L0.198,-0.057C0.219,-0.009 0.221,0.025 0.211,0.052C0.2,0.084 0.187,0.11 0.173,0.14C0.163,0.159 0.142,0.178 0.118,0.178C0.105,0.178 0.097,0.173 0.087,0.173C0.059,0.173 0.048,0.194 0.048,0.206C0.048,0.226 0.067,0.241 0.093,0.241C0.113,0.241 0.151,0.234 0.185,0.173Z" style="fill-rule:nonzero;"/>
            </g>
            <g transform="matrix(2.38946,0,0,2.38946,618.352,186.893)">
                <path d="M0.046,-0.126C0.05,-0.079 0.052,-0.04 0.052,-0C0.062,-0.002 0.071,-0.003 0.076,-0.003C0.083,-0.003 0.088,-0.003 0.095,-0.001C0.121,0.006 0.147,0.01 0.182,0.01C0.235,0.01 0.334,-0.017 0.334,-0.111C0.334,-0.176 0.287,-0.208 0.222,-0.233C0.165,-0.255 0.123,-0.274 0.123,-0.326C0.123,-0.365 0.155,-0.397 0.194,-0.397C0.229,-0.397 0.28,-0.384 0.292,-0.303C0.298,-0.298 0.307,-0.298 0.313,-0.304C0.316,-0.338 0.317,-0.369 0.318,-0.4C0.288,-0.405 0.244,-0.419 0.194,-0.419C0.118,-0.419 0.059,-0.378 0.059,-0.312C0.059,-0.242 0.096,-0.214 0.164,-0.185C0.242,-0.151 0.264,-0.13 0.264,-0.089C0.264,-0.042 0.215,-0.012 0.18,-0.012C0.143,-0.012 0.117,-0.028 0.107,-0.038C0.084,-0.06 0.071,-0.103 0.065,-0.127C0.059,-0.133 0.052,-0.132 0.046,-0.126Z" style="fill-rule:nonzero;"/>
            </g>
            <g transform="matrix(2.38946,0,0,2.38946,619.246,186.893)">
                <path d="M0.08,-0.599C0.08,-0.573 0.104,-0.547 0.128,-0.547C0.156,-0.547 0.18,-0.574 0.18,-0.595C0.18,-0.619 0.159,-0.647 0.132,-0.647C0.108,-0.647 0.08,-0.623 0.08,-0.599ZM0.176,-0.109C0.175,-0.139 0.174,-0.19 0.174,-0.22C0.174,-0.25 0.175,-0.281 0.176,-0.311C0.179,-0.361 0.182,-0.415 0.182,-0.415C0.182,-0.419 0.177,-0.422 0.169,-0.422C0.141,-0.411 0.105,-0.402 0.036,-0.393C0.034,-0.387 0.036,-0.381 0.038,-0.375C0.093,-0.37 0.1,-0.365 0.103,-0.307C0.105,-0.277 0.105,-0.251 0.105,-0.221C0.105,-0.191 0.104,-0.139 0.103,-0.109C0.101,-0.026 0.092,-0.023 0.031,-0.018C0.025,-0.012 0.025,-0.001 0.031,0.005C0.057,0.003 0.11,-0 0.14,-0C0.171,-0 0.218,0.003 0.248,0.005C0.254,-0.001 0.254,-0.012 0.248,-0.018C0.187,-0.022 0.179,-0.025 0.176,-0.109Z" style="fill-rule:nonzero;"/>
            </g>
            <g transform="matrix(2.38946,0,0,2.38946,619.884,186.893)">
                <path d="M0.046,-0.126C0.05,-0.079 0.052,-0.04 0.052,-0C0.062,-0.002 0.071,-0.003 0.076,-0.003C0.083,-0.003 0.088,-0.003 0.095,-0.001C0.121,0.006 0.147,0.01 0.182,0.01C0.235,0.01 0.334,-0.017 0.334,-0.111C0.334,-0.176 0.287,-0.208 0.222,-0.233C0.165,-0.255 0.123,-0.274 0.123,-0.326C0.123,-0.365 0.155,-0.397 0.194,-0.397C0.229,-0.397 0.28,-0.384 0.292,-0.303C0.298,-0.298 0.307,-0.298 0.313,-0.304C0.316,-0.338 0.317,-0.369 0.318,-0.4C0.288,-0.405 0.244,-0.419 0.194,-0.419C0.118,-0.419 0.059,-0.378 0.059,-0.312C0.059,-0.242 0.096,-0.214 0.164,-0.185C0.242,-0.151 0.264,-0.13 0.264,-0.089C0.264,-0.042 0.215,-0.012 0.18,-0.012C0.143,-0.012 0.117,-0.028 0.107,-0.038C0.084,-0.06 0.071,-0.103 0.065,-0.127C0.059,-0.133 0.052,-0.132 0.046,-0.126Z" style="fill-rule:nonzero;"/>
            </g>
            <g transform="matrix(2.38946,0,0,2.38946,621.375,186.893)">
                <path d="M0.293,-0.212L0.288,-0.095C0.288,-0.083 0.283,-0.077 0.275,-0.071C0.25,-0.051 0.216,-0.02 0.189,-0.02C0.141,-0.02 0.115,-0.062 0.115,-0.092C0.115,-0.13 0.14,-0.175 0.211,-0.192L0.293,-0.212ZM0.288,-0.046C0.294,-0.026 0.309,0.01 0.36,0.01C0.407,0.01 0.441,-0.028 0.441,-0.033C0.441,-0.04 0.431,-0.046 0.427,-0.046C0.421,-0.046 0.418,-0.03 0.398,-0.03C0.361,-0.03 0.356,-0.06 0.358,-0.115L0.363,-0.257C0.368,-0.391 0.297,-0.419 0.227,-0.419C0.149,-0.419 0.065,-0.369 0.065,-0.318C0.065,-0.295 0.081,-0.279 0.103,-0.279C0.131,-0.279 0.147,-0.304 0.147,-0.316C0.147,-0.323 0.146,-0.329 0.144,-0.333C0.143,-0.336 0.142,-0.342 0.142,-0.352C0.142,-0.382 0.183,-0.397 0.219,-0.397C0.251,-0.397 0.294,-0.371 0.294,-0.263C0.294,-0.256 0.292,-0.243 0.289,-0.242L0.199,-0.222C0.106,-0.201 0.042,-0.153 0.042,-0.088C0.042,-0.015 0.094,0.01 0.161,0.01C0.205,0.01 0.225,0.001 0.267,-0.031L0.286,-0.046L0.288,-0.046Z" style="fill-rule:nonzero;"/>
            </g>
            <g transform="matrix(2.38946,0,0,2.38946,622.46,186.893)">
                <path d="M0.175,-0.341C0.172,-0.337 0.166,-0.328 0.166,-0.341C0.166,-0.37 0.171,-0.414 0.171,-0.414C0.171,-0.419 0.167,-0.421 0.159,-0.421C0.132,-0.411 0.099,-0.403 0.033,-0.394C0.031,-0.388 0.033,-0.383 0.035,-0.377C0.086,-0.372 0.095,-0.368 0.097,-0.312C0.099,-0.261 0.098,-0.153 0.097,-0.104C0.095,-0.026 0.087,-0.023 0.03,-0.018C0.024,-0.012 0.024,-0.001 0.03,0.005C0.069,0.004 0.092,-0 0.133,-0C0.17,-0 0.184,0.004 0.224,0.005C0.23,-0.001 0.23,-0.012 0.224,-0.018C0.175,-0.023 0.169,-0.026 0.167,-0.104C0.166,-0.151 0.165,-0.236 0.167,-0.283C0.168,-0.303 0.175,-0.314 0.183,-0.323C0.219,-0.358 0.272,-0.379 0.309,-0.379C0.328,-0.379 0.349,-0.367 0.36,-0.345C0.37,-0.326 0.369,-0.3 0.37,-0.271C0.372,-0.221 0.372,-0.154 0.37,-0.104C0.367,-0.026 0.361,-0.023 0.311,-0.018C0.306,-0.012 0.306,-0.001 0.311,0.005C0.351,0.004 0.369,-0 0.407,-0C0.446,-0 0.464,0.004 0.505,0.005C0.51,-0.001 0.51,-0.012 0.505,-0.018C0.452,-0.023 0.444,-0.026 0.441,-0.104C0.439,-0.154 0.439,-0.208 0.441,-0.258C0.442,-0.273 0.442,-0.288 0.442,-0.301C0.442,-0.335 0.439,-0.365 0.423,-0.386C0.407,-0.407 0.375,-0.419 0.342,-0.419C0.295,-0.419 0.233,-0.406 0.175,-0.341Z" style="fill-rule:nonzero;"/>
            </g>
            <g transform="matrix(2.38946,0,0,2.38946,623.714,186.893)">
                <path d="M0.329,-0.108C0.328,-0.09 0.327,-0.083 0.314,-0.071C0.279,-0.04 0.248,-0.025 0.224,-0.025C0.173,-0.025 0.113,-0.092 0.113,-0.211C0.113,-0.28 0.127,-0.327 0.141,-0.347C0.171,-0.392 0.216,-0.395 0.235,-0.395C0.269,-0.395 0.296,-0.383 0.315,-0.361C0.328,-0.346 0.331,-0.339 0.331,-0.309C0.331,-0.309 0.331,-0.158 0.329,-0.108ZM0.318,-0.048C0.323,-0.052 0.33,-0.054 0.33,-0.047C0.33,-0.024 0.34,0.01 0.34,0.01C0.348,0.013 0.35,0.012 0.358,0.01C0.379,-0.007 0.41,-0.022 0.468,-0.029C0.474,-0.035 0.474,-0.038 0.468,-0.044C0.407,-0.049 0.4,-0.067 0.398,-0.114C0.396,-0.164 0.396,-0.549 0.398,-0.599C0.401,-0.661 0.402,-0.689 0.402,-0.689C0.402,-0.696 0.399,-0.698 0.39,-0.698C0.366,-0.688 0.3,-0.676 0.262,-0.673C0.26,-0.665 0.262,-0.66 0.268,-0.654C0.318,-0.651 0.326,-0.656 0.329,-0.576C0.331,-0.526 0.331,-0.411 0.331,-0.411C0.331,-0.404 0.329,-0.402 0.322,-0.402C0.318,-0.402 0.277,-0.419 0.246,-0.419C0.183,-0.419 0.141,-0.397 0.103,-0.361C0.062,-0.32 0.037,-0.265 0.037,-0.194C0.037,-0.077 0.096,0.01 0.199,0.01C0.236,0.01 0.271,-0.01 0.318,-0.048Z" style="fill-rule:nonzero;"/>
            </g>
            <g transform="matrix(2.38946,0,0,2.38946,625.475,186.893)">
                <path d="M0.329,-0.108C0.328,-0.09 0.327,-0.083 0.314,-0.071C0.279,-0.04 0.248,-0.025 0.224,-0.025C0.173,-0.025 0.113,-0.092 0.113,-0.211C0.113,-0.28 0.127,-0.327 0.141,-0.347C0.171,-0.392 0.216,-0.395 0.235,-0.395C0.269,-0.395 0.296,-0.383 0.315,-0.361C0.328,-0.346 0.331,-0.339 0.331,-0.309C0.331,-0.309 0.331,-0.158 0.329,-0.108ZM0.318,-0.048C0.323,-0.052 0.33,-0.054 0.33,-0.047C0.33,-0.024 0.34,0.01 0.34,0.01C0.348,0.013 0.35,0.012 0.358,0.01C0.379,-0.007 0.41,-0.022 0.468,-0.029C0.474,-0.035 0.474,-0.038 0.468,-0.044C0.407,-0.049 0.4,-0.067 0.398,-0.114C0.396,-0.164 0.396,-0.549 0.398,-0.599C0.401,-0.661 0.402,-0.689 0.402,-0.689C0.402,-0.696 0.399,-0.698 0.39,-0.698C0.366,-0.688 0.3,-0.676 0.262,-0.673C0.26,-0.665 0.262,-0.66 0.268,-0.654C0.318,-0.651 0.326,-0.656 0.329,-0.576C0.331,-0.526 0.331,-0.411 0.331,-0.411C0.331,-0.404 0.329,-0.402 0.322,-0.402C0.318,-0.402 0.277,-0.419 0.246,-0.419C0.183,-0.419 0.141,-0.397 0.103,-0.361C0.062,-0.32 0.037,-0.265 0.037,-0.194C0.037,-0.077 0.096,0.01 0.199,0.01C0.236,0.01 0.271,-0.01 0.318,-0.048Z" style="fill-rule:nonzero;"/>
            </g>
            <g transform="matrix(2.38946,0,0,2.38946,626.639,186.893)">
                <path d="M0.08,-0.599C0.08,-0.573 0.104,-0.547 0.128,-0.547C0.156,-0.547 0.18,-0.574 0.18,-0.595C0.18,-0.619 0.159,-0.647 0.132,-0.647C0.108,-0.647 0.08,-0.623 0.08,-0.599ZM0.176,-0.109C0.175,-0.139 0.174,-0.19 0.174,-0.22C0.174,-0.25 0.175,-0.281 0.176,-0.311C0.179,-0.361 0.182,-0.415 0.182,-0.415C0.182,-0.419 0.177,-0.422 0.169,-0.422C0.141,-0.411 0.105,-0.402 0.036,-0.393C0.034,-0.387 0.036,-0.381 0.038,-0.375C0.093,-0.37 0.1,-0.365 0.103,-0.307C0.105,-0.277 0.105,-0.251 0.105,-0.221C0.105,-0.191 0.104,-0.139 0.103,-0.109C0.101,-0.026 0.092,-0.023 0.031,-0.018C0.025,-0.012 0.025,-0.001 0.031,0.005C0.057,0.003 0.11,-0 0.14,-0C0.171,-0 0.218,0.003 0.248,0.005C0.254,-0.001 0.254,-0.012 0.248,-0.018C0.187,-0.022 0.179,-0.025 0.176,-0.109Z" style="fill-rule:nonzero;"/>
            </g>
            <g transform="matrix(2.38946,0,0,2.38946,627.277,186.893)">
                <path d="M0.293,-0.212L0.288,-0.095C0.288,-0.083 0.283,-0.077 0.275,-0.071C0.25,-0.051 0.216,-0.02 0.189,-0.02C0.141,-0.02 0.115,-0.062 0.115,-0.092C0.115,-0.13 0.14,-0.175 0.211,-0.192L0.293,-0.212ZM0.288,-0.046C0.294,-0.026 0.309,0.01 0.36,0.01C0.407,0.01 0.441,-0.028 0.441,-0.033C0.441,-0.04 0.431,-0.046 0.427,-0.046C0.421,-0.046 0.418,-0.03 0.398,-0.03C0.361,-0.03 0.356,-0.06 0.358,-0.115L0.363,-0.257C0.368,-0.391 0.297,-0.419 0.227,-0.419C0.149,-0.419 0.065,-0.369 0.065,-0.318C0.065,-0.295 0.081,-0.279 0.103,-0.279C0.131,-0.279 0.147,-0.304 0.147,-0.316C0.147,-0.323 0.146,-0.329 0.144,-0.333C0.143,-0.336 0.142,-0.342 0.142,-0.352C0.142,-0.382 0.183,-0.397 0.219,-0.397C0.251,-0.397 0.294,-0.371 0.294,-0.263C0.294,-0.256 0.292,-0.243 0.289,-0.242L0.199,-0.222C0.106,-0.201 0.042,-0.153 0.042,-0.088C0.042,-0.015 0.094,0.01 0.161,0.01C0.205,0.01 0.225,0.001 0.267,-0.031L0.286,-0.046L0.288,-0.046Z" style="fill-rule:nonzero;"/>
            </g>
            <g transform="matrix(2.38946,0,0,2.38946,628.362,186.893)">
                <path d="M0.307,-0.266C0.307,-0.177 0.259,-0.15 0.224,-0.15C0.144,-0.15 0.132,-0.227 0.132,-0.288C0.132,-0.355 0.16,-0.396 0.212,-0.396C0.272,-0.396 0.307,-0.345 0.307,-0.266ZM0.126,0.01C0.136,0.013 0.152,0.014 0.164,0.014C0.194,0.014 0.221,0.011 0.234,0.011C0.282,0.011 0.314,0.013 0.342,0.028C0.379,0.049 0.391,0.072 0.391,0.097C0.391,0.166 0.297,0.221 0.211,0.221C0.147,0.221 0.093,0.174 0.093,0.109C0.093,0.077 0.098,0.043 0.126,0.01ZM0.423,-0.369C0.441,-0.369 0.459,-0.386 0.459,-0.405C0.459,-0.425 0.441,-0.44 0.415,-0.44C0.39,-0.44 0.344,-0.424 0.319,-0.392C0.308,-0.4 0.276,-0.419 0.22,-0.419C0.135,-0.419 0.06,-0.362 0.06,-0.274C0.06,-0.223 0.08,-0.193 0.107,-0.167C0.08,-0.144 0.055,-0.112 0.055,-0.071C0.055,-0.031 0.08,-0.007 0.109,0.003C0.058,0.034 0.029,0.087 0.029,0.128C0.029,0.211 0.109,0.246 0.182,0.246C0.311,0.246 0.45,0.175 0.45,0.072C0.45,0.041 0.436,0.014 0.408,-0.009C0.371,-0.04 0.304,-0.041 0.269,-0.041C0.252,-0.041 0.228,-0.039 0.205,-0.036C0.191,-0.035 0.181,-0.034 0.176,-0.034C0.148,-0.034 0.112,-0.059 0.112,-0.094C0.112,-0.113 0.122,-0.134 0.133,-0.15C0.156,-0.137 0.182,-0.127 0.219,-0.127C0.303,-0.127 0.379,-0.183 0.379,-0.276C0.379,-0.321 0.367,-0.346 0.339,-0.375C0.346,-0.385 0.366,-0.398 0.378,-0.398C0.385,-0.398 0.391,-0.395 0.397,-0.386C0.401,-0.378 0.413,-0.369 0.423,-0.369Z" style="fill-rule:nonzero;"/>
            </g>
            <g transform="matrix(2.38946,0,0,2.38946,629.516,186.893)">
                <path d="M0.175,-0.341C0.172,-0.337 0.166,-0.328 0.166,-0.341C0.166,-0.37 0.171,-0.414 0.171,-0.414C0.171,-0.419 0.167,-0.421 0.159,-0.421C0.132,-0.411 0.099,-0.403 0.033,-0.394C0.031,-0.388 0.033,-0.383 0.035,-0.377C0.086,-0.372 0.095,-0.368 0.097,-0.312C0.099,-0.261 0.098,-0.153 0.097,-0.104C0.095,-0.026 0.087,-0.023 0.03,-0.018C0.024,-0.012 0.024,-0.001 0.03,0.005C0.069,0.004 0.092,-0 0.133,-0C0.17,-0 0.184,0.004 0.224,0.005C0.23,-0.001 0.23,-0.012 0.224,-0.018C0.175,-0.023 0.169,-0.026 0.167,-0.104C0.166,-0.151 0.165,-0.236 0.167,-0.283C0.168,-0.303 0.175,-0.314 0.183,-0.323C0.219,-0.358 0.272,-0.379 0.309,-0.379C0.328,-0.379 0.349,-0.367 0.36,-0.345C0.37,-0.326 0.369,-0.3 0.37,-0.271C0.372,-0.221 0.372,-0.154 0.37,-0.104C0.367,-0.026 0.361,-0.023 0.311,-0.018C0.306,-0.012 0.306,-0.001 0.311,0.005C0.351,0.004 0.369,-0 0.407,-0C0.446,-0 0.464,0.004 0.505,0.005C0.51,-0.001 0.51,-0.012 0.505,-0.018C0.452,-0.023 0.444,-0.026 0.441,-0.104C0.439,-0.154 0.439,-0.208 0.441,-0.258C0.442,-0.273 0.442,-0.288 0.442,-0.301C0.442,-0.335 0.439,-0.365 0.423,-0.386C0.407,-0.407 0.375,-0.419 0.342,-0.419C0.295,-0.419 0.233,-0.406 0.175,-0.341Z" style="fill-rule:nonzero;"/>
            </g>
            <g transform="matrix(2.38946,0,0,2.38946,630.77,186.893)">
                <path d="M0.04,-0.195C0.04,-0.098 0.105,0.01 0.24,0.01C0.301,0.01 0.347,-0.012 0.38,-0.044C0.423,-0.086 0.442,-0.146 0.442,-0.204C0.442,-0.303 0.388,-0.419 0.242,-0.419C0.179,-0.419 0.128,-0.393 0.093,-0.352C0.058,-0.311 0.04,-0.255 0.04,-0.195ZM0.228,-0.396C0.31,-0.396 0.366,-0.311 0.366,-0.174C0.366,-0.054 0.299,-0.013 0.254,-0.013C0.155,-0.013 0.116,-0.144 0.116,-0.217C0.116,-0.3 0.142,-0.396 0.228,-0.396Z" style="fill-rule:nonzero;"/>
            </g>
            <g transform="matrix(2.38946,0,0,2.38946,631.922,186.893)">
                <path d="M0.046,-0.126C0.05,-0.079 0.052,-0.04 0.052,-0C0.062,-0.002 0.071,-0.003 0.076,-0.003C0.083,-0.003 0.088,-0.003 0.095,-0.001C0.121,0.006 0.147,0.01 0.182,0.01C0.235,0.01 0.334,-0.017 0.334,-0.111C0.334,-0.176 0.287,-0.208 0.222,-0.233C0.165,-0.255 0.123,-0.274 0.123,-0.326C0.123,-0.365 0.155,-0.397 0.194,-0.397C0.229,-0.397 0.28,-0.384 0.292,-0.303C0.298,-0.298 0.307,-0.298 0.313,-0.304C0.316,-0.338 0.317,-0.369 0.318,-0.4C0.288,-0.405 0.244,-0.419 0.194,-0.419C0.118,-0.419 0.059,-0.378 0.059,-0.312C0.059,-0.242 0.096,-0.214 0.164,-0.185C0.242,-0.151 0.264,-0.13 0.264,-0.089C0.264,-0.042 0.215,-0.012 0.18,-0.012C0.143,-0.012 0.117,-0.028 0.107,-0.038C0.084,-0.06 0.071,-0.103 0.065,-0.127C0.059,-0.133 0.052,-0.132 0.046,-0.126Z" style="fill-rule:nonzero;"/>
            </g>
            <g transform="matrix(2.38946,0,0,2.38946,632.816,186.893)">
                <path d="M0.047,-0.409C0.034,-0.409 0.03,-0.403 0.03,-0.395L0.03,-0.386C0.03,-0.381 0.031,-0.38 0.035,-0.38L0.091,-0.38C0.091,-0.285 0.086,-0.145 0.086,-0.085C0.086,-0.017 0.109,0.01 0.153,0.01C0.197,0.01 0.245,-0.011 0.282,-0.053C0.28,-0.063 0.279,-0.065 0.272,-0.067C0.247,-0.048 0.212,-0.033 0.187,-0.033C0.161,-0.033 0.157,-0.062 0.155,-0.121C0.153,-0.171 0.156,-0.291 0.16,-0.38L0.259,-0.38C0.269,-0.38 0.282,-0.383 0.282,-0.392L0.282,-0.403C0.282,-0.407 0.28,-0.409 0.275,-0.409L0.16,-0.409L0.161,-0.466C0.162,-0.528 0.165,-0.566 0.165,-0.566C0.165,-0.572 0.162,-0.575 0.158,-0.575C0.151,-0.575 0.136,-0.564 0.121,-0.558C0.105,-0.551 0.088,-0.55 0.088,-0.54C0.088,-0.529 0.091,-0.515 0.091,-0.409L0.047,-0.409Z" style="fill-rule:nonzero;"/>
            </g>
            <g transform="matrix(2.38946,0,0,2.38946,633.532,186.893)">
                <path d="M0.08,-0.599C0.08,-0.573 0.104,-0.547 0.128,-0.547C0.156,-0.547 0.18,-0.574 0.18,-0.595C0.18,-0.619 0.159,-0.647 0.132,-0.647C0.108,-0.647 0.08,-0.623 0.08,-0.599ZM0.176,-0.109C0.175,-0.139 0.174,-0.19 0.174,-0.22C0.174,-0.25 0.175,-0.281 0.176,-0.311C0.179,-0.361 0.182,-0.415 0.182,-0.415C0.182,-0.419 0.177,-0.422 0.169,-0.422C0.141,-0.411 0.105,-0.402 0.036,-0.393C0.034,-0.387 0.036,-0.381 0.038,-0.375C0.093,-0.37 0.1,-0.365 0.103,-0.307C0.105,-0.277 0.105,-0.251 0.105,-0.221C0.105,-0.191 0.104,-0.139 0.103,-0.109C0.101,-0.026 0.092,-0.023 0.031,-0.018C0.025,-0.012 0.025,-0.001 0.031,0.005C0.057,0.003 0.11,-0 0.14,-0C0.171,-0 0.218,0.003 0.248,0.005C0.254,-0.001 0.254,-0.012 0.248,-0.018C0.187,-0.022 0.179,-0.025 0.176,-0.109Z" style="fill-rule:nonzero;"/>
            </g>
            <g transform="matrix(2.38946,0,0,2.38946,634.17,186.893)">
                <path d="M0.389,-0.087C0.385,-0.096 0.383,-0.096 0.374,-0.097C0.342,-0.055 0.291,-0.027 0.25,-0.027C0.175,-0.027 0.111,-0.099 0.111,-0.219C0.111,-0.324 0.168,-0.396 0.231,-0.396C0.287,-0.396 0.302,-0.353 0.306,-0.32C0.309,-0.293 0.322,-0.286 0.342,-0.286C0.362,-0.286 0.388,-0.298 0.388,-0.328C0.388,-0.38 0.328,-0.419 0.236,-0.419C0.142,-0.419 0.035,-0.333 0.035,-0.198C0.035,-0.075 0.109,0.01 0.229,0.01C0.286,0.01 0.341,-0.009 0.389,-0.087Z" style="fill-rule:nonzero;"/>
            </g>
            <g transform="matrix(2.38946,0,0,2.38946,635.172,186.893)">
                <path d="M0.046,-0.126C0.05,-0.079 0.052,-0.04 0.052,-0C0.062,-0.002 0.071,-0.003 0.076,-0.003C0.083,-0.003 0.088,-0.003 0.095,-0.001C0.121,0.006 0.147,0.01 0.182,0.01C0.235,0.01 0.334,-0.017 0.334,-0.111C0.334,-0.176 0.287,-0.208 0.222,-0.233C0.165,-0.255 0.123,-0.274 0.123,-0.326C0.123,-0.365 0.155,-0.397 0.194,-0.397C0.229,-0.397 0.28,-0.384 0.292,-0.303C0.298,-0.298 0.307,-0.298 0.313,-0.304C0.316,-0.338 0.317,-0.369 0.318,-0.4C0.288,-0.405 0.244,-0.419 0.194,-0.419C0.118,-0.419 0.059,-0.378 0.059,-0.312C0.059,-0.242 0.096,-0.214 0.164,-0.185C0.242,-0.151 0.264,-0.13 0.264,-0.089C0.264,-0.042 0.215,-0.012 0.18,-0.012C0.143,-0.012 0.117,-0.028 0.107,-0.038C0.084,-0.06 0.071,-0.103 0.065,-0.127C0.059,-0.133 0.052,-0.132 0.046,-0.126Z" style="fill-rule:nonzero;"/>
            </g>
            <g transform="matrix(2.38946,0,0,2.38946,608.466,189.282)">
                <path d="M0.194,-0.391C0.2,-0.397 0.2,-0.408 0.194,-0.414C0.159,-0.413 0.125,-0.409 0.094,-0.409C0.064,-0.409 0.035,-0.413 0.01,-0.414C0.004,-0.408 0.004,-0.397 0.01,-0.391C0.055,-0.386 0.066,-0.366 0.086,-0.316L0.211,-0.008C0.217,0.005 0.224,0.011 0.234,0.011C0.243,0.011 0.249,0.005 0.256,-0.01L0.353,-0.244L0.451,-0.008C0.457,0.005 0.464,0.011 0.474,0.011C0.483,0.011 0.49,0.005 0.496,-0.009L0.62,-0.311C0.636,-0.35 0.652,-0.388 0.701,-0.391C0.707,-0.397 0.707,-0.408 0.701,-0.414C0.677,-0.413 0.668,-0.409 0.634,-0.409C0.598,-0.409 0.575,-0.413 0.54,-0.414C0.534,-0.408 0.534,-0.397 0.54,-0.391C0.612,-0.387 0.599,-0.349 0.586,-0.315L0.506,-0.116C0.496,-0.092 0.489,-0.084 0.478,-0.112L0.396,-0.321C0.378,-0.366 0.384,-0.387 0.435,-0.391C0.441,-0.397 0.441,-0.408 0.435,-0.414C0.4,-0.413 0.365,-0.409 0.339,-0.409C0.311,-0.409 0.291,-0.413 0.256,-0.414C0.25,-0.408 0.25,-0.397 0.256,-0.391C0.305,-0.387 0.313,-0.349 0.329,-0.305L0.337,-0.283L0.271,-0.121C0.259,-0.09 0.249,-0.088 0.237,-0.119L0.161,-0.316C0.143,-0.362 0.148,-0.388 0.194,-0.391Z" style="fill-rule:nonzero;"/>
            </g>
            <g transform="matrix(2.38946,0,0,2.38946,610.169,189.282)">
                <path d="M0.08,-0.599C0.08,-0.573 0.104,-0.547 0.128,-0.547C0.156,-0.547 0.18,-0.574 0.18,-0.595C0.18,-0.619 0.159,-0.647 0.132,-0.647C0.108,-0.647 0.08,-0.623 0.08,-0.599ZM0.176,-0.109C0.175,-0.139 0.174,-0.19 0.174,-0.22C0.174,-0.25 0.175,-0.281 0.176,-0.311C0.179,-0.361 0.182,-0.415 0.182,-0.415C0.182,-0.419 0.177,-0.422 0.169,-0.422C0.141,-0.411 0.105,-0.402 0.036,-0.393C0.034,-0.387 0.036,-0.381 0.038,-0.375C0.093,-0.37 0.1,-0.365 0.103,-0.307C0.105,-0.277 0.105,-0.251 0.105,-0.221C0.105,-0.191 0.104,-0.139 0.103,-0.109C0.101,-0.026 0.092,-0.023 0.031,-0.018C0.025,-0.012 0.025,-0.001 0.031,0.005C0.057,0.003 0.11,-0 0.14,-0C0.171,-0 0.218,0.003 0.248,0.005C0.254,-0.001 0.254,-0.012 0.248,-0.018C0.187,-0.022 0.179,-0.025 0.176,-0.109Z" style="fill-rule:nonzero;"/>
            </g>
            <g transform="matrix(2.38946,0,0,2.38946,610.807,189.282)">
                <path d="M0.047,-0.409C0.034,-0.409 0.03,-0.403 0.03,-0.395L0.03,-0.386C0.03,-0.381 0.031,-0.38 0.035,-0.38L0.091,-0.38C0.091,-0.285 0.086,-0.145 0.086,-0.085C0.086,-0.017 0.109,0.01 0.153,0.01C0.197,0.01 0.245,-0.011 0.282,-0.053C0.28,-0.063 0.279,-0.065 0.272,-0.067C0.247,-0.048 0.212,-0.033 0.187,-0.033C0.161,-0.033 0.157,-0.062 0.155,-0.121C0.153,-0.171 0.156,-0.291 0.16,-0.38L0.259,-0.38C0.269,-0.38 0.282,-0.383 0.282,-0.392L0.282,-0.403C0.282,-0.407 0.28,-0.409 0.275,-0.409L0.16,-0.409L0.161,-0.466C0.162,-0.528 0.165,-0.566 0.165,-0.566C0.165,-0.572 0.162,-0.575 0.158,-0.575C0.151,-0.575 0.136,-0.564 0.121,-0.558C0.105,-0.551 0.088,-0.55 0.088,-0.54C0.088,-0.529 0.091,-0.515 0.091,-0.409L0.047,-0.409Z" style="fill-rule:nonzero;"/>
            </g>
            <g transform="matrix(2.38946,0,0,2.38946,611.524,189.282)">
                <path d="M0.157,-0.273C0.157,-0.293 0.165,-0.305 0.173,-0.313C0.209,-0.349 0.259,-0.389 0.297,-0.389C0.316,-0.389 0.337,-0.377 0.348,-0.355C0.358,-0.336 0.361,-0.29 0.362,-0.261C0.364,-0.211 0.364,-0.154 0.362,-0.104C0.359,-0.026 0.353,-0.023 0.303,-0.018C0.298,-0.012 0.298,-0.001 0.303,0.005C0.343,0.004 0.36,-0 0.398,-0C0.437,-0 0.455,0.004 0.496,0.005C0.501,-0.001 0.501,-0.012 0.496,-0.018C0.443,-0.023 0.435,-0.026 0.432,-0.104C0.43,-0.154 0.43,-0.208 0.432,-0.258C0.434,-0.31 0.431,-0.357 0.409,-0.386C0.393,-0.407 0.363,-0.419 0.33,-0.419C0.283,-0.419 0.224,-0.406 0.166,-0.341C0.163,-0.337 0.156,-0.328 0.156,-0.341C0.156,-0.341 0.157,-0.549 0.159,-0.599C0.162,-0.661 0.161,-0.654 0.163,-0.689C0.163,-0.696 0.16,-0.698 0.151,-0.698C0.127,-0.688 0.061,-0.676 0.023,-0.673C0.021,-0.665 0.023,-0.66 0.029,-0.654C0.079,-0.651 0.087,-0.656 0.09,-0.576C0.092,-0.516 0.092,-0.164 0.09,-0.104C0.087,-0.025 0.078,-0.022 0.023,-0.018C0.017,-0.012 0.017,-0.001 0.023,0.005C0.062,0.004 0.084,-0 0.125,-0C0.162,-0 0.176,0.004 0.216,0.005C0.222,-0.001 0.222,-0.012 0.216,-0.018C0.168,-0.022 0.162,-0.025 0.159,-0.104C0.157,-0.154 0.157,-0.273 0.157,-0.273Z" style="fill-rule:nonzero;"/>
            </g>
            <g transform="matrix(2.38946,0,0,2.38946,613.343,189.282)">
                <path d="M0.04,-0.195C0.04,-0.098 0.105,0.01 0.24,0.01C0.301,0.01 0.347,-0.012 0.38,-0.044C0.423,-0.086 0.442,-0.146 0.442,-0.204C0.442,-0.303 0.388,-0.419 0.242,-0.419C0.179,-0.419 0.128,-0.393 0.093,-0.352C0.058,-0.311 0.04,-0.255 0.04,-0.195ZM0.228,-0.396C0.31,-0.396 0.366,-0.311 0.366,-0.174C0.366,-0.054 0.299,-0.013 0.254,-0.013C0.155,-0.013 0.116,-0.144 0.116,-0.217C0.116,-0.3 0.142,-0.396 0.228,-0.396Z" style="fill-rule:nonzero;"/>
            </g>
            <g transform="matrix(2.38946,0,0,2.38946,614.494,189.282)">
                <path d="M0.175,-0.341C0.172,-0.337 0.166,-0.328 0.166,-0.341C0.166,-0.37 0.171,-0.414 0.171,-0.414C0.171,-0.419 0.167,-0.421 0.159,-0.421C0.132,-0.411 0.099,-0.403 0.033,-0.394C0.031,-0.388 0.033,-0.383 0.035,-0.377C0.086,-0.372 0.095,-0.368 0.097,-0.312C0.099,-0.261 0.098,-0.153 0.097,-0.104C0.095,-0.026 0.087,-0.023 0.03,-0.018C0.024,-0.012 0.024,-0.001 0.03,0.005C0.069,0.004 0.092,-0 0.133,-0C0.17,-0 0.184,0.004 0.224,0.005C0.23,-0.001 0.23,-0.012 0.224,-0.018C0.175,-0.023 0.169,-0.026 0.167,-0.104C0.166,-0.151 0.165,-0.236 0.167,-0.283C0.168,-0.303 0.175,-0.314 0.183,-0.323C0.219,-0.358 0.272,-0.379 0.309,-0.379C0.328,-0.379 0.349,-0.367 0.36,-0.345C0.37,-0.326 0.369,-0.3 0.37,-0.271C0.372,-0.221 0.372,-0.154 0.37,-0.104C0.367,-0.026 0.361,-0.023 0.311,-0.018C0.306,-0.012 0.306,-0.001 0.311,0.005C0.351,0.004 0.369,-0 0.407,-0C0.446,-0 0.464,0.004 0.505,0.005C0.51,-0.001 0.51,-0.012 0.505,-0.018C0.452,-0.023 0.444,-0.026 0.441,-0.104C0.439,-0.154 0.439,-0.208 0.441,-0.258C0.442,-0.273 0.442,-0.288 0.442,-0.301C0.442,-0.335 0.439,-0.365 0.423,-0.386C0.407,-0.407 0.375,-0.419 0.342,-0.419C0.295,-0.419 0.233,-0.406 0.175,-0.341Z" style="fill-rule:nonzero;"/>
            </g>
            <g transform="matrix(2.38946,0,0,2.38946,615.749,189.282)">
                <path d="M0.114,-0.259C0.132,-0.367 0.195,-0.396 0.231,-0.396C0.277,-0.396 0.321,-0.357 0.321,-0.277C0.321,-0.268 0.317,-0.264 0.307,-0.264L0.114,-0.259ZM0.378,-0.089C0.343,-0.053 0.31,-0.027 0.255,-0.027C0.221,-0.027 0.171,-0.047 0.141,-0.096C0.122,-0.127 0.111,-0.175 0.111,-0.23L0.379,-0.234C0.39,-0.234 0.397,-0.241 0.397,-0.251C0.397,-0.331 0.364,-0.419 0.231,-0.419C0.141,-0.419 0.035,-0.338 0.035,-0.193C0.035,-0.14 0.049,-0.087 0.08,-0.051C0.112,-0.013 0.162,0.01 0.231,0.01C0.303,0.01 0.36,-0.023 0.398,-0.073C0.395,-0.083 0.389,-0.088 0.378,-0.089Z" style="fill-rule:nonzero;"/>
            </g>
            <g transform="matrix(2.38946,0,0,2.38946,617.386,189.282)">
                <path d="M0.389,-0.087C0.385,-0.096 0.383,-0.096 0.374,-0.097C0.342,-0.055 0.291,-0.027 0.25,-0.027C0.175,-0.027 0.111,-0.099 0.111,-0.219C0.111,-0.324 0.168,-0.396 0.231,-0.396C0.287,-0.396 0.302,-0.353 0.306,-0.32C0.309,-0.293 0.322,-0.286 0.342,-0.286C0.362,-0.286 0.388,-0.298 0.388,-0.328C0.388,-0.38 0.328,-0.419 0.236,-0.419C0.142,-0.419 0.035,-0.333 0.035,-0.198C0.035,-0.075 0.109,0.01 0.229,0.01C0.286,0.01 0.341,-0.009 0.389,-0.087Z" style="fill-rule:nonzero;"/>
            </g>
            <g transform="matrix(2.38946,0,0,2.38946,618.387,189.282)">
                <path d="M0.04,-0.195C0.04,-0.098 0.105,0.01 0.24,0.01C0.301,0.01 0.347,-0.012 0.38,-0.044C0.423,-0.086 0.442,-0.146 0.442,-0.204C0.442,-0.303 0.388,-0.419 0.242,-0.419C0.179,-0.419 0.128,-0.393 0.093,-0.352C0.058,-0.311 0.04,-0.255 0.04,-0.195ZM0.228,-0.396C0.31,-0.396 0.366,-0.311 0.366,-0.174C0.366,-0.054 0.299,-0.013 0.254,-0.013C0.155,-0.013 0.116,-0.144 0.116,-0.217C0.116,-0.3 0.142,-0.396 0.228,-0.396Z" style="fill-rule:nonzero;"/>
            </g>
            <g transform="matrix(2.38946,0,0,2.38946,619.539,189.282)">
                <path d="M0.18,-0.313C0.218,-0.35 0.261,-0.369 0.29,-0.369C0.326,-0.369 0.352,-0.346 0.355,-0.282C0.357,-0.232 0.357,-0.154 0.355,-0.104C0.352,-0.026 0.347,-0.022 0.296,-0.018C0.291,-0.012 0.291,-0.001 0.296,0.005C0.328,0.002 0.36,-0 0.391,-0C0.421,-0 0.447,0.002 0.483,0.005C0.488,-0.001 0.488,-0.012 0.483,-0.018C0.435,-0.022 0.429,-0.026 0.426,-0.104C0.424,-0.154 0.424,-0.218 0.426,-0.268C0.427,-0.281 0.426,-0.295 0.425,-0.306C0.471,-0.357 0.521,-0.369 0.558,-0.369C0.594,-0.369 0.616,-0.348 0.619,-0.284C0.621,-0.234 0.621,-0.154 0.619,-0.104C0.616,-0.026 0.61,-0.022 0.56,-0.018C0.555,-0.012 0.555,-0.001 0.56,0.005C0.585,0.003 0.625,-0 0.655,-0C0.686,-0 0.726,0.003 0.751,0.005C0.756,-0.001 0.756,-0.012 0.751,-0.018C0.699,-0.022 0.693,-0.026 0.69,-0.104C0.688,-0.154 0.688,-0.217 0.69,-0.267C0.693,-0.352 0.677,-0.419 0.593,-0.419C0.544,-0.419 0.478,-0.4 0.428,-0.348C0.425,-0.345 0.42,-0.341 0.418,-0.349C0.409,-0.388 0.374,-0.419 0.324,-0.419C0.269,-0.419 0.215,-0.385 0.173,-0.341C0.17,-0.338 0.163,-0.332 0.163,-0.341C0.163,-0.37 0.168,-0.414 0.168,-0.414C0.168,-0.419 0.164,-0.421 0.156,-0.421C0.129,-0.411 0.095,-0.403 0.029,-0.394C0.027,-0.388 0.028,-0.382 0.031,-0.377C0.083,-0.372 0.091,-0.367 0.093,-0.312C0.095,-0.262 0.095,-0.154 0.093,-0.104C0.09,-0.026 0.08,-0.022 0.028,-0.018C0.022,-0.012 0.022,-0.001 0.028,0.005C0.055,0.003 0.098,-0 0.129,-0C0.156,-0 0.195,0.003 0.221,0.005C0.227,-0.001 0.227,-0.012 0.221,-0.018C0.173,-0.023 0.167,-0.026 0.164,-0.104C0.162,-0.154 0.162,-0.223 0.164,-0.273C0.165,-0.293 0.172,-0.305 0.18,-0.313Z" style="fill-rule:nonzero;"/>
            </g>
            <g transform="matrix(2.38946,0,0,2.38946,621.381,189.282)">
                <path d="M0.18,-0.313C0.218,-0.35 0.261,-0.369 0.29,-0.369C0.326,-0.369 0.352,-0.346 0.355,-0.282C0.357,-0.232 0.357,-0.154 0.355,-0.104C0.352,-0.026 0.347,-0.022 0.296,-0.018C0.291,-0.012 0.291,-0.001 0.296,0.005C0.328,0.002 0.36,-0 0.391,-0C0.421,-0 0.447,0.002 0.483,0.005C0.488,-0.001 0.488,-0.012 0.483,-0.018C0.435,-0.022 0.429,-0.026 0.426,-0.104C0.424,-0.154 0.424,-0.218 0.426,-0.268C0.427,-0.281 0.426,-0.295 0.425,-0.306C0.471,-0.357 0.521,-0.369 0.558,-0.369C0.594,-0.369 0.616,-0.348 0.619,-0.284C0.621,-0.234 0.621,-0.154 0.619,-0.104C0.616,-0.026 0.61,-0.022 0.56,-0.018C0.555,-0.012 0.555,-0.001 0.56,0.005C0.585,0.003 0.625,-0 0.655,-0C0.686,-0 0.726,0.003 0.751,0.005C0.756,-0.001 0.756,-0.012 0.751,-0.018C0.699,-0.022 0.693,-0.026 0.69,-0.104C0.688,-0.154 0.688,-0.217 0.69,-0.267C0.693,-0.352 0.677,-0.419 0.593,-0.419C0.544,-0.419 0.478,-0.4 0.428,-0.348C0.425,-0.345 0.42,-0.341 0.418,-0.349C0.409,-0.388 0.374,-0.419 0.324,-0.419C0.269,-0.419 0.215,-0.385 0.173,-0.341C0.17,-0.338 0.163,-0.332 0.163,-0.341C0.163,-0.37 0.168,-0.414 0.168,-0.414C0.168,-0.419 0.164,-0.421 0.156,-0.421C0.129,-0.411 0.095,-0.403 0.029,-0.394C0.027,-0.388 0.028,-0.382 0.031,-0.377C0.083,-0.372 0.091,-0.367 0.093,-0.312C0.095,-0.262 0.095,-0.154 0.093,-0.104C0.09,-0.026 0.08,-0.022 0.028,-0.018C0.022,-0.012 0.022,-0.001 0.028,0.005C0.055,0.003 0.098,-0 0.129,-0C0.156,-0 0.195,0.003 0.221,0.005C0.227,-0.001 0.227,-0.012 0.221,-0.018C0.173,-0.023 0.167,-0.026 0.164,-0.104C0.162,-0.154 0.162,-0.223 0.164,-0.273C0.165,-0.293 0.172,-0.305 0.18,-0.313Z" style="fill-rule:nonzero;"/>
            </g>
            <g transform="matrix(2.38946,0,0,2.38946,623.223,189.282)">
                <path d="M0.293,-0.212L0.288,-0.095C0.288,-0.083 0.283,-0.077 0.275,-0.071C0.25,-0.051 0.216,-0.02 0.189,-0.02C0.141,-0.02 0.115,-0.062 0.115,-0.092C0.115,-0.13 0.14,-0.175 0.211,-0.192L0.293,-0.212ZM0.288,-0.046C0.294,-0.026 0.309,0.01 0.36,0.01C0.407,0.01 0.441,-0.028 0.441,-0.033C0.441,-0.04 0.431,-0.046 0.427,-0.046C0.421,-0.046 0.418,-0.03 0.398,-0.03C0.361,-0.03 0.356,-0.06 0.358,-0.115L0.363,-0.257C0.368,-0.391 0.297,-0.419 0.227,-0.419C0.149,-0.419 0.065,-0.369 0.065,-0.318C0.065,-0.295 0.081,-0.279 0.103,-0.279C0.131,-0.279 0.147,-0.304 0.147,-0.316C0.147,-0.323 0.146,-0.329 0.144,-0.333C0.143,-0.336 0.142,-0.342 0.142,-0.352C0.142,-0.382 0.183,-0.397 0.219,-0.397C0.251,-0.397 0.294,-0.371 0.294,-0.263C0.294,-0.256 0.292,-0.243 0.289,-0.242L0.199,-0.222C0.106,-0.201 0.042,-0.153 0.042,-0.088C0.042,-0.015 0.094,0.01 0.161,0.01C0.205,0.01 0.225,0.001 0.267,-0.031L0.286,-0.046L0.288,-0.046Z" style="fill-rule:nonzero;"/>
            </g>
            <g transform="matrix(2.38946,0,0,2.38946,624.308,189.282)">
                <path d="M0.175,-0.341C0.172,-0.337 0.166,-0.328 0.166,-0.341C0.166,-0.37 0.171,-0.414 0.171,-0.414C0.171,-0.419 0.167,-0.421 0.159,-0.421C0.132,-0.411 0.099,-0.403 0.033,-0.394C0.031,-0.388 0.033,-0.383 0.035,-0.377C0.086,-0.372 0.095,-0.368 0.097,-0.312C0.099,-0.261 0.098,-0.153 0.097,-0.104C0.095,-0.026 0.087,-0.023 0.03,-0.018C0.024,-0.012 0.024,-0.001 0.03,0.005C0.069,0.004 0.092,-0 0.133,-0C0.17,-0 0.184,0.004 0.224,0.005C0.23,-0.001 0.23,-0.012 0.224,-0.018C0.175,-0.023 0.169,-0.026 0.167,-0.104C0.166,-0.151 0.165,-0.236 0.167,-0.283C0.168,-0.303 0.175,-0.314 0.183,-0.323C0.219,-0.358 0.272,-0.379 0.309,-0.379C0.328,-0.379 0.349,-0.367 0.36,-0.345C0.37,-0.326 0.369,-0.3 0.37,-0.271C0.372,-0.221 0.372,-0.154 0.37,-0.104C0.367,-0.026 0.361,-0.023 0.311,-0.018C0.306,-0.012 0.306,-0.001 0.311,0.005C0.351,0.004 0.369,-0 0.407,-0C0.446,-0 0.464,0.004 0.505,0.005C0.51,-0.001 0.51,-0.012 0.505,-0.018C0.452,-0.023 0.444,-0.026 0.441,-0.104C0.439,-0.154 0.439,-0.208 0.441,-0.258C0.442,-0.273 0.442,-0.288 0.442,-0.301C0.442,-0.335 0.439,-0.365 0.423,-0.386C0.407,-0.407 0.375,-0.419 0.342,-0.419C0.295,-0.419 0.233,-0.406 0.175,-0.341Z" style="fill-rule:nonzero;"/>
            </g>
            <g transform="matrix(2.38946,0,0,2.38946,625.562,189.282)">
                <path d="M0.329,-0.108C0.328,-0.09 0.327,-0.083 0.314,-0.071C0.279,-0.04 0.248,-0.025 0.224,-0.025C0.173,-0.025 0.113,-0.092 0.113,-0.211C0.113,-0.28 0.127,-0.327 0.141,-0.347C0.171,-0.392 0.216,-0.395 0.235,-0.395C0.269,-0.395 0.296,-0.383 0.315,-0.361C0.328,-0.346 0.331,-0.339 0.331,-0.309C0.331,-0.309 0.331,-0.158 0.329,-0.108ZM0.318,-0.048C0.323,-0.052 0.33,-0.054 0.33,-0.047C0.33,-0.024 0.34,0.01 0.34,0.01C0.348,0.013 0.35,0.012 0.358,0.01C0.379,-0.007 0.41,-0.022 0.468,-0.029C0.474,-0.035 0.474,-0.038 0.468,-0.044C0.407,-0.049 0.4,-0.067 0.398,-0.114C0.396,-0.164 0.396,-0.549 0.398,-0.599C0.401,-0.661 0.402,-0.689 0.402,-0.689C0.402,-0.696 0.399,-0.698 0.39,-0.698C0.366,-0.688 0.3,-0.676 0.262,-0.673C0.26,-0.665 0.262,-0.66 0.268,-0.654C0.318,-0.651 0.326,-0.656 0.329,-0.576C0.331,-0.526 0.331,-0.411 0.331,-0.411C0.331,-0.404 0.329,-0.402 0.322,-0.402C0.318,-0.402 0.277,-0.419 0.246,-0.419C0.183,-0.419 0.141,-0.397 0.103,-0.361C0.062,-0.32 0.037,-0.265 0.037,-0.194C0.037,-0.077 0.096,0.01 0.199,0.01C0.236,0.01 0.271,-0.01 0.318,-0.048Z" style="fill-rule:nonzero;"/>
            </g>
        </g>
        <g transform="matrix(1,0,0,1,8.41453e-10,16.6231)">
            <path d="M396.781,360.209C399.066,358.116 400.849,355.527 402.128,352.442C403.408,349.358 404.048,346.053 404.048,342.527L404.048,333.769L501.39,333.769L501.39,245.858L523.327,245.858L523.327,333.769L560.07,333.769L560.07,317.245L582.006,317.245L582.006,360.209L396.781,360.209ZM719.657,333.935L751.602,333.935L744.061,319.889L738.577,306.504L735.424,293.449L734.601,287.17L734.19,281.055L734.19,245.858L756.126,245.858L756.126,281.055L756.263,284.36L756.675,287.665L758.183,294.11L760.239,300.389L762.844,306.338L771.071,321.045L784.369,339.388C786.289,341.701 787.249,344.565 787.249,347.981C787.249,351.396 786.266,354.287 784.301,356.656C782.336,359.025 779.936,360.209 777.103,360.209L686.478,360.209C691.231,357.565 695.39,353.985 698.955,349.468C702.519,344.951 705.216,339.718 707.044,333.769L719.657,333.769L719.657,333.935ZM889.253,333.935L915.988,333.935L915.988,360.209L869.51,360.209C871.704,358.777 873.669,356.904 875.405,354.59L876.228,353.434L889.253,333.935ZM669.752,333.769C671.763,333.769 673.636,333.301 675.373,332.365C677.11,331.428 678.641,330.189 679.966,328.647C681.291,327.104 682.342,325.259 683.119,323.111C683.896,320.963 684.285,318.622 684.285,316.088L684.285,289.814C684.285,287.39 683.896,285.104 683.119,282.956C682.342,280.808 681.291,278.935 679.966,277.337C678.641,275.74 677.11,274.473 675.373,273.537C673.636,272.6 671.763,272.132 669.752,272.132L647.816,272.132C645.805,272.132 643.908,272.6 642.126,273.537C640.343,274.473 638.79,275.74 637.464,277.337C636.139,278.935 635.088,280.808 634.311,282.956C633.534,285.104 633.146,287.39 633.146,289.814L633.146,316.088C633.146,321.376 634.791,325.837 638.081,329.473L612.992,329.473C612.443,327.27 612.009,325.066 611.689,322.863C611.369,320.66 611.209,318.401 611.209,316.088L611.209,289.814C611.209,283.755 612.169,278.054 614.088,272.711C616.008,267.368 618.636,262.686 621.972,258.665C625.308,254.644 629.192,251.476 633.625,249.163C638.058,246.849 642.788,245.693 647.816,245.693L669.752,245.693C674.779,245.693 679.509,246.849 683.942,249.163C688.375,251.476 692.237,254.644 695.527,258.665C698.818,262.686 701.423,267.368 703.342,272.711C705.261,278.054 706.221,283.755 706.221,289.814L706.221,316.088C706.221,322.257 705.261,328.013 703.342,333.356C701.423,338.699 698.818,343.354 695.527,347.32C692.237,351.285 688.375,354.425 683.942,356.739C679.509,359.052 674.779,360.209 669.752,360.209L585.571,360.209L585.571,333.769L669.752,333.769ZM872.663,351.616C870.561,354.37 868.093,356.491 865.26,357.978C862.426,359.465 859.456,360.209 856.348,360.209L853.195,360.209C846.797,360.209 841.404,357.4 837.017,351.781L822.21,329.638L818.234,322.367L814.258,329.638L799.451,351.781C795.886,356.298 791.682,359.052 786.837,360.044C788.208,358.391 789.237,356.546 789.922,354.508C790.608,352.47 790.973,350.377 791.019,348.228C791.065,346.08 790.768,343.987 790.128,341.949C789.488,339.911 788.483,338.066 787.111,336.413L786.974,336.248L784.232,332.778L792.321,321.045L800.685,306.338L803.152,300.389L805.346,294.11L806.717,287.665L807.128,284.36L807.266,281.055L807.266,245.858L829.202,245.858L829.202,281.055L829.339,284.36L829.75,287.665L831.258,294.11L833.315,300.389L835.92,306.338L844.146,321.045L852.646,333.274C853.195,334.045 853.88,334.43 854.703,334.43C855.526,334.43 856.257,334.155 856.897,333.604C856.897,333.494 856.942,333.384 857.034,333.274L865.397,321.045L873.76,306.338L876.228,300.389L878.285,294.11L879.793,287.665L880.204,284.36L880.341,281.055L880.341,245.858L902.277,245.858L902.277,281.055L901.729,288.822L900.632,296.423L898.713,304.025L896.245,311.13L888.43,327.49L873.486,350.459L872.663,351.616ZM342.986,184.62L415.427,184.62C417.438,184.62 419.312,184.151 421.048,183.215C422.785,182.279 424.316,181.039 425.641,179.497C426.967,177.955 428.018,176.109 428.795,173.961C429.571,171.813 429.96,169.472 429.96,166.938L429.96,140.664C429.96,138.24 429.571,135.954 428.795,133.806C428.018,131.658 426.967,129.785 425.641,128.188C424.316,126.59 422.785,125.323 421.048,124.387C419.312,123.451 417.438,122.982 415.427,122.982L393.491,122.982C391.48,122.982 389.583,123.451 387.801,124.387C386.019,125.323 384.465,126.59 383.139,128.188C381.814,129.785 380.763,131.658 379.986,133.806C379.209,135.954 378.821,138.24 378.821,140.664L378.821,166.938C378.821,172.226 380.466,176.688 383.756,180.323L358.667,180.323C358.118,178.12 357.684,175.917 357.364,173.713C357.044,171.51 356.884,169.252 356.884,166.938L356.884,140.664C356.884,134.605 357.844,128.904 359.764,123.561C361.683,118.218 364.311,113.536 367.647,109.515C370.983,105.494 374.868,102.327 379.301,100.013C383.734,97.7 388.464,96.543 393.491,96.543L415.427,96.543C420.454,96.543 425.184,97.7 429.617,100.013C434.05,102.327 437.912,105.494 441.202,109.515C444.493,113.536 447.098,118.218 449.017,123.561C450.937,128.904 451.896,134.605 451.896,140.664L451.896,166.938C451.896,173.107 450.937,178.863 449.017,184.206C447.098,189.549 444.493,194.204 441.202,198.17C437.912,202.136 434.05,205.275 429.617,207.589C425.184,209.902 420.454,211.059 415.427,211.059L342.352,211.059L342.352,210.844C340.878,211.016 339.483,211.456 338.167,212.166C336.43,213.103 334.899,214.37 333.574,215.967C332.248,217.564 331.197,219.437 330.42,221.585C329.643,223.734 329.255,226.019 329.255,228.443L329.255,246.042L329.225,246.042L329.225,298.489L329.255,298.489L329.255,316.088C329.255,318.511 329.643,320.797 330.42,322.946C331.197,325.094 332.248,326.967 333.574,328.564C334.899,330.161 336.43,331.428 338.167,332.365C339.903,333.301 341.777,333.769 343.788,333.769L378.409,333.769L378.409,245.693L473.421,245.693L473.421,272.132L400.346,272.132L400.346,289.814L451.485,289.814L451.485,316.253L400.346,316.253L400.346,342.527C400.346,344.951 399.957,347.237 399.18,349.385C398.404,351.533 397.352,353.406 396.027,355.004C394.702,356.601 393.171,357.868 391.434,358.804C389.698,359.741 387.824,360.209 385.813,360.209L343.788,360.209C338.761,360.209 334.031,359.052 329.598,356.739C325.165,354.425 321.303,351.258 318.013,347.237C314.722,343.216 312.117,338.534 310.198,333.191C308.278,327.848 307.319,322.147 307.319,316.088L307.319,228.443C307.319,222.384 308.278,216.683 310.198,211.34C312.117,205.997 314.722,201.315 318.013,197.294C321.303,193.273 325.165,190.106 329.598,187.792C333.794,185.602 338.257,184.449 342.986,184.332L342.986,184.62ZM937.014,184.62L937.014,184.332C941.743,184.449 946.206,185.602 950.402,187.792C954.835,190.106 958.697,193.273 961.987,197.294C965.278,201.315 967.883,205.997 969.802,211.34C971.722,216.683 972.681,222.384 972.681,228.443L972.681,316.088C972.681,322.147 971.722,327.848 969.802,333.191C967.883,338.534 965.278,343.216 961.987,347.237C958.697,351.258 954.835,354.425 950.402,356.739C945.969,359.052 941.239,360.209 936.212,360.209L916.123,360.209L916.123,333.769L936.212,333.769C938.223,333.769 940.097,333.301 941.833,332.365C943.57,331.428 945.101,330.161 946.426,328.564C947.752,326.967 948.803,325.094 949.58,322.946C950.357,320.797 950.745,318.511 950.745,316.088L950.745,298.489L950.775,298.489L950.775,246.042L950.745,246.042L950.745,228.443C950.745,226.019 950.357,223.734 949.58,221.585C948.803,219.437 947.752,217.564 946.426,215.967C945.101,214.37 943.57,213.103 941.833,212.166C940.477,211.435 939.037,210.989 937.513,210.829L937.513,211.059L904.334,211.059C909.087,208.415 913.246,204.835 916.81,200.318C920.375,195.801 923.071,190.568 924.899,184.62L937.014,184.62ZM336.658,350.625C335.562,350.625 335.013,351.285 335.013,352.607C335.013,353.158 335.173,353.626 335.493,354.012C335.813,354.398 336.201,354.59 336.658,354.59C337.115,354.59 337.504,354.398 337.824,354.012C338.144,353.626 338.304,353.158 338.304,352.607C338.304,352.057 338.144,351.588 337.824,351.203C337.504,350.817 337.115,350.625 336.658,350.625ZM943.342,350.625C944.438,350.625 944.987,351.285 944.987,352.607C944.987,353.158 944.827,353.626 944.507,354.012C944.187,354.398 943.799,354.59 943.342,354.59C942.885,354.59 942.496,354.398 942.176,354.012C941.856,353.626 941.696,353.158 941.696,352.607C941.696,352.057 941.856,351.588 942.176,351.203C942.496,350.817 942.885,350.625 943.342,350.625ZM331.311,347.981C327.655,345.777 324.502,342.858 321.851,339.222C319.201,335.587 317.281,331.456 316.093,326.829L316.093,326.664C315.636,325.562 314.905,325.121 313.899,325.342C312.985,325.562 312.528,326.278 312.528,327.49L312.528,328.151C313.899,333.439 316.093,338.148 319.109,342.28C322.126,346.411 325.736,349.633 329.94,351.946C330.397,352.167 330.854,352.194 331.311,352.029C331.768,351.864 332.088,351.506 332.271,350.955C332.728,349.743 332.454,348.752 331.449,347.981L331.311,347.981ZM948.689,347.981C952.345,345.777 955.498,342.858 958.149,339.222C960.799,335.587 962.719,331.456 963.907,326.829L963.907,326.664C964.364,325.562 965.095,325.121 966.101,325.342C967.015,325.562 967.472,326.278 967.472,327.49L967.472,328.151C966.101,333.439 963.907,338.148 960.891,342.28C957.874,346.411 954.264,349.633 950.06,351.946C949.603,352.167 949.146,352.194 948.689,352.029C948.232,351.864 947.912,351.506 947.729,350.955C947.272,349.743 947.546,348.752 948.551,347.981L948.689,347.981ZM576.659,349.964C577.299,349.964 577.802,349.716 578.168,349.22C578.533,348.724 578.716,348.146 578.716,347.485C578.716,345.943 578.03,345.171 576.659,345.171C575.38,345.171 574.74,345.943 574.74,347.485C574.74,348.146 574.923,348.724 575.288,349.22C575.654,349.716 576.111,349.964 576.659,349.964ZM565.554,322.863C564.366,322.863 563.772,323.634 563.772,325.176C563.772,326.609 564.366,327.325 565.554,327.325L574.74,327.325L574.74,340.71C574.74,342.142 575.334,342.858 576.522,342.858C577.711,342.858 578.305,342.142 578.305,340.71L578.305,322.863L565.554,322.863ZM735.835,338.396C734.556,338.396 733.916,339.112 733.916,340.544C733.916,341.977 734.556,342.693 735.835,342.693L748.86,342.693C750.048,342.693 750.642,341.977 750.642,340.544C750.642,339.112 750.048,338.396 748.86,338.396L735.835,338.396ZM728.98,342.693C730.351,342.693 731.037,341.866 731.037,340.214C731.037,338.672 730.351,337.9 728.98,337.9C728.523,337.9 728.089,338.121 727.678,338.561C727.266,339.002 727.061,339.553 727.061,340.214C727.061,340.985 727.266,341.591 727.678,342.032C728.089,342.472 728.523,342.693 728.98,342.693ZM891.995,337.9C891.446,337.9 890.967,338.121 890.555,338.561C890.144,339.002 889.938,339.553 889.938,340.214C889.938,340.985 890.144,341.591 890.555,342.032C890.967,342.472 891.446,342.693 891.995,342.693C892.543,342.693 893.023,342.472 893.434,342.032C893.846,341.591 894.051,340.985 894.051,340.214C894.051,339.553 893.846,339.002 893.434,338.561C893.023,338.121 892.543,337.9 891.995,337.9ZM898.713,338.396C897.433,338.396 896.793,339.112 896.793,340.544C896.793,341.977 897.433,342.693 898.713,342.693L911.738,342.693C912.926,342.693 913.52,341.977 913.52,340.544C913.52,339.112 912.926,338.396 911.738,338.396L898.713,338.396ZM523.464,340.544C523.464,341.977 524.058,342.693 525.246,342.693L554.312,342.693C555.5,342.693 556.094,341.977 556.094,340.544C556.094,339.002 555.5,338.231 554.312,338.231L525.246,338.231C524.058,338.231 523.464,339.002 523.464,340.544ZM518.665,342.693C519.214,342.693 519.671,342.445 520.036,341.949C520.402,341.453 520.585,340.875 520.585,340.214C520.585,338.672 519.945,337.9 518.665,337.9C518.117,337.9 517.637,338.121 517.226,338.561C516.814,339.002 516.609,339.553 516.609,340.214C516.609,340.875 516.814,341.453 517.226,341.949C517.637,342.445 518.117,342.693 518.665,342.693ZM413.371,342.693C413.919,342.693 414.399,342.445 414.81,341.949C415.221,341.453 415.427,340.875 415.427,340.214C415.427,339.553 415.221,338.975 414.81,338.479C414.399,337.983 413.919,337.735 413.371,337.735C412.822,337.735 412.365,337.983 412,338.479C411.634,338.975 411.451,339.553 411.451,340.214C411.451,340.875 411.634,341.453 412,341.949C412.365,342.445 412.822,342.693 413.371,342.693ZM626.976,340.379C626.976,341.811 627.57,342.527 628.758,342.527L669.752,342.527C674.413,342.527 678.618,340.93 682.365,337.735C682.914,337.295 683.188,336.689 683.188,335.918C683.188,334.375 682.594,333.604 681.406,333.604C681.131,333.604 680.811,333.714 680.446,333.935C677.247,336.799 673.682,338.231 669.752,338.231L628.758,338.231C627.57,338.231 626.976,338.947 626.976,340.379ZM420.089,338.231C418.9,338.231 418.306,338.947 418.306,340.379C418.306,341.811 418.9,342.527 420.089,342.527L482.059,342.527C483.338,342.527 483.978,341.811 483.978,340.379C483.978,338.947 483.338,338.231 482.059,338.231L420.089,338.231ZM843.735,333.274C844.923,333.274 845.517,332.557 845.517,331.125C845.517,329.583 844.923,328.812 843.735,328.812C842.455,328.812 841.815,329.583 841.815,331.125C841.815,332.557 842.455,333.274 843.735,333.274ZM685.382,327.655C684.193,327.655 683.599,328.316 683.599,329.638C683.599,331.07 684.193,331.786 685.382,331.786C686.57,331.786 687.164,331.07 687.164,329.638C687.164,328.316 686.57,327.655 685.382,327.655ZM840.993,327.159C841.541,326.829 841.815,326.223 841.815,325.342L841.404,324.02L836.468,315.757L830.025,302.207L826.871,291.797L825.911,286.509L825.5,281.055L825.5,250.32L817.96,250.32C816.771,250.32 816.177,251.036 816.177,252.468C816.177,253.9 816.771,254.616 817.96,254.616L821.935,254.616L821.935,281.055L822.073,285.517L822.621,289.979L824.815,298.572L829.887,311.296L838.525,326.829C839.347,327.82 840.17,327.931 840.993,327.159ZM628.758,324.185C629.672,323.965 630.129,323.249 630.129,322.037L629.992,321.706L630.129,321.706L629.581,316.088L629.581,301.216C629.581,299.783 628.941,299.067 627.661,299.067C626.473,299.067 625.879,299.783 625.879,301.216L625.879,316.088L626.565,322.863C626.93,324.075 627.661,324.515 628.758,324.185ZM764.627,319.393C764.078,319.393 763.598,319.613 763.187,320.054C762.776,320.494 762.57,321.045 762.57,321.706C762.57,322.367 762.776,322.918 763.187,323.359C763.598,323.799 764.078,324.02 764.627,324.02C765.084,324.02 765.518,323.799 765.929,323.359C766.34,322.918 766.546,322.367 766.546,321.706C766.546,321.045 766.34,320.494 765.929,320.054C765.518,319.613 765.084,319.393 764.627,319.393ZM751.739,298.572L754.618,306.504L759.417,316.418C760.057,317.63 760.879,317.906 761.885,317.245C762.524,316.694 762.844,316.033 762.844,315.262L762.433,313.94L756.949,302.207L755.167,297.084L753.796,291.797L752.836,286.509L752.562,281.055L752.562,250.32L743.924,250.32C742.736,250.32 742.142,251.036 742.142,252.468C742.142,253.9 742.736,254.616 743.924,254.616L748.86,254.616L748.86,281.055L748.997,285.517L749.683,289.979L751.739,298.572ZM518.528,309.974C517.888,309.974 517.386,310.222 517.02,310.717C516.654,311.213 516.471,311.791 516.471,312.452C516.471,314.105 517.157,314.931 518.528,314.931C519.076,314.931 519.556,314.711 519.968,314.27C520.379,313.829 520.585,313.224 520.585,312.452C520.585,311.791 520.379,311.213 519.968,310.717C519.556,310.222 519.076,309.974 518.528,309.974ZM418.169,294.11C416.981,294.11 416.387,294.826 416.387,296.258C416.387,297.801 416.981,298.572 418.169,298.572L444.219,298.572L444.219,305.347C444.219,306.889 444.813,307.66 446.001,307.66C447.189,307.66 447.783,306.889 447.783,305.347L447.783,294.11L418.169,294.11ZM508.794,252.137C508.794,253.68 509.388,254.451 510.576,254.451L516.746,254.451L516.746,304.19C516.746,305.622 517.34,306.338 518.528,306.338C519.716,306.338 520.31,305.622 520.31,304.19L520.31,249.989L510.576,249.989C509.388,249.989 508.794,250.705 508.794,252.137ZM893.503,304.19C894.783,304.19 895.422,303.474 895.422,302.042C895.422,300.5 894.783,299.728 893.503,299.728C892.315,299.728 891.721,300.5 891.721,302.042C891.721,303.474 892.315,304.19 893.503,304.19ZM411.725,293.78C411.177,293.78 410.697,294.027 410.286,294.523C409.874,295.019 409.669,295.597 409.669,296.258C409.669,296.919 409.874,297.498 410.286,297.993C410.697,298.489 411.177,298.737 411.725,298.737C412.274,298.737 412.731,298.489 413.096,297.993C413.462,297.498 413.645,296.919 413.645,296.258C413.645,295.597 413.462,295.019 413.096,294.523C412.731,294.027 412.274,293.78 411.725,293.78ZM889.116,252.137C888.933,253.569 889.436,254.396 890.624,254.616L895.011,254.616L895.011,281.055L894.463,287.996L893.366,294.771C893.183,296.093 893.594,296.974 894.6,297.415C895.788,297.745 896.565,297.25 896.93,295.928L898.164,288.492L898.576,281.055L898.576,250.32L891.309,250.32C891.035,250.209 890.807,250.209 890.624,250.32C889.801,250.32 889.298,250.925 889.116,252.137ZM627.661,291.962C626.382,291.962 625.742,292.733 625.742,294.275C625.742,295.707 626.382,296.423 627.661,296.423C628.85,296.423 629.444,295.707 629.444,294.275C629.444,292.733 628.85,291.962 627.661,291.962ZM682.228,257.921C685.884,260.124 689.038,263.044 691.688,266.679C694.339,270.314 696.258,274.446 697.447,279.073L697.447,279.238C697.904,280.339 698.635,280.78 699.64,280.56C700.554,280.339 701.011,279.623 701.011,278.412L701.011,277.751C699.64,272.463 697.447,267.753 694.43,263.622C691.414,259.491 687.804,256.268 683.599,253.955C683.142,253.735 682.685,253.707 682.228,253.872C681.771,254.038 681.451,254.396 681.268,254.946C680.811,256.158 681.086,257.15 682.091,257.921L682.228,257.921ZM428.04,250.154C426.852,250.154 426.258,250.87 426.258,252.303C426.258,253.735 426.852,254.451 428.04,254.451L466.155,254.451L466.155,261.391C466.155,262.823 466.749,263.539 467.937,263.539C469.125,263.539 469.72,262.823 469.72,261.391L469.72,250.154L428.04,250.154ZM676.881,255.277C677.978,255.277 678.526,254.616 678.526,253.294C678.526,252.743 678.366,252.275 678.047,251.889C677.727,251.504 677.338,251.311 676.881,251.311C676.424,251.311 676.036,251.504 675.716,251.889C675.396,252.275 675.236,252.743 675.236,253.294C675.236,253.845 675.396,254.313 675.716,254.699C676.036,255.084 676.424,255.277 676.881,255.277ZM422.008,249.989C421.46,249.989 420.98,250.237 420.568,250.733C420.157,251.228 419.951,251.807 419.951,252.468C419.951,253.129 420.157,253.707 420.568,254.203C420.98,254.699 421.46,254.946 422.008,254.946C422.556,254.946 423.013,254.699 423.379,254.203C423.745,253.707 423.927,253.129 423.927,252.468C423.927,251.807 423.745,251.228 423.379,250.733C423.013,250.237 422.556,249.989 422.008,249.989ZM885.551,250.154C884.363,250.154 883.769,250.87 883.769,252.303C883.769,253.735 884.363,254.451 885.551,254.451C886.739,254.451 887.333,253.735 887.333,252.303C887.333,250.87 886.739,250.154 885.551,250.154ZM948.689,196.55C952.345,198.754 955.498,201.673 958.149,205.308C960.799,208.944 962.719,213.075 963.907,217.702L963.907,217.867C964.364,218.969 965.095,219.41 966.101,219.189C967.015,218.969 967.472,218.253 967.472,217.041L967.472,216.38C966.101,211.092 963.907,206.383 960.891,202.251C957.874,198.12 954.264,194.898 950.06,192.584C949.603,192.364 949.146,192.337 948.689,192.502C948.232,192.667 947.912,193.025 947.729,193.576C947.272,194.788 947.546,195.779 948.551,196.55L948.689,196.55ZM331.311,196.55C327.655,198.754 324.502,201.673 321.851,205.308C319.201,208.944 317.281,213.075 316.093,217.702L316.093,217.867C315.636,218.969 314.905,219.41 313.899,219.189C312.985,218.969 312.528,218.253 312.528,217.041L312.528,216.38C313.899,211.092 316.093,206.383 319.109,202.251C322.126,198.12 325.736,194.898 329.94,192.584C330.397,192.364 330.854,192.337 331.311,192.502C331.768,192.667 332.088,193.025 332.271,193.576C332.728,194.788 332.454,195.779 331.449,196.55L331.311,196.55ZM465.332,184.785L480.002,184.785L480.002,96.708L538.545,96.708C542.567,96.708 546.337,97.617 549.856,99.435C553.375,101.252 556.46,103.759 559.11,106.953C561.761,110.148 563.863,113.894 565.417,118.19C566.971,122.487 567.748,127.058 567.748,131.906C567.748,136.312 567.108,140.499 565.828,144.465C564.549,148.43 562.789,151.983 560.55,155.123C558.311,158.263 555.637,160.852 552.529,162.89C549.422,164.928 546.086,166.222 542.521,166.773L552.667,184.785L581.869,184.785L581.869,184.62L625.742,184.62L625.742,122.982L596.539,122.982L596.539,96.708L676.881,96.708L676.881,122.982L647.678,122.982L647.678,193.378C647.678,195.911 647.29,198.252 646.513,200.401C645.736,202.549 644.685,204.394 643.36,205.936C642.034,207.479 640.481,208.718 638.698,209.654C636.916,210.591 635.019,211.059 633.008,211.059L548.828,211.059C546.451,211.059 544.189,210.398 542.041,209.076C539.893,207.754 538.134,205.881 536.763,203.458L516.06,167.103L501.802,167.103L501.802,193.543C501.802,198.5 500.408,202.659 497.62,206.019C494.832,209.379 491.382,211.059 487.269,211.059L432.154,211.059C436.906,208.415 441.065,204.835 444.63,200.318C448.195,195.801 450.891,190.568 452.719,184.62L465.332,184.62L465.332,184.785ZM706.221,184.62L706.221,96.708L728.157,96.708L728.157,193.378C728.157,195.801 727.769,198.087 726.992,200.235C726.215,202.384 725.164,204.256 723.839,205.854C722.513,207.451 720.96,208.718 719.177,209.654C717.395,210.591 715.498,211.059 713.488,211.059L643.977,211.059C646.262,208.966 648.044,206.377 649.324,203.292C650.603,200.208 651.243,196.903 651.243,193.378L651.243,184.62L706.221,184.62ZM887.608,184.62C889.618,184.62 891.492,184.151 893.229,183.215C894.965,182.279 896.496,181.039 897.822,179.497C899.147,177.955 900.198,176.109 900.975,173.961C901.752,171.813 902.14,169.472 902.14,166.938L902.14,140.664C902.14,138.24 901.752,135.954 900.975,133.806C900.198,131.658 899.147,129.785 897.822,128.188C896.496,126.59 894.965,125.323 893.229,124.387C891.492,123.451 889.618,122.982 887.608,122.982L865.671,122.982C863.66,122.982 861.764,123.451 859.981,124.387C858.199,125.323 856.645,126.59 855.32,128.188C853.995,129.785 852.943,131.658 852.167,133.806C851.39,135.954 851.001,138.24 851.001,140.664L851.001,166.938C851.001,172.226 852.646,176.688 855.937,180.323L830.847,180.323C830.299,178.12 829.865,175.917 829.545,173.713C829.225,171.51 829.065,169.252 829.065,166.938L829.065,140.664C829.065,134.605 830.025,128.904 831.944,123.561C833.863,118.218 836.491,113.536 839.827,109.515C843.164,105.494 847.048,102.327 851.481,100.013C855.914,97.7 860.644,96.543 865.671,96.543L887.608,96.543C892.635,96.543 897.365,97.7 901.798,100.013C906.231,102.327 910.092,105.494 913.383,109.515C916.673,113.536 919.278,118.218 921.198,123.561C923.117,128.904 924.077,134.605 924.077,140.664L924.077,166.938C924.077,173.107 923.117,178.863 921.198,184.206C919.278,189.549 916.673,194.204 913.383,198.17C910.092,202.136 906.231,205.275 901.798,207.589C897.365,209.902 892.635,211.059 887.608,211.059L793.83,211.059C791.819,211.059 789.922,210.591 788.14,209.654C786.357,208.718 784.804,207.451 783.478,205.854C782.153,204.256 781.102,202.384 780.325,200.235C779.548,198.087 779.16,195.801 779.16,193.378L779.16,167.103L731.722,167.103L731.722,140.664L779.16,140.664L779.16,96.708L801.096,96.708L801.096,184.62L887.608,184.62ZM943.342,193.906C944.438,193.906 944.987,193.245 944.987,191.923C944.987,191.373 944.827,190.904 944.507,190.519C944.187,190.133 943.799,189.94 943.342,189.94C942.885,189.94 942.496,190.133 942.176,190.519C941.856,190.904 941.696,191.373 941.696,191.923C941.696,192.474 941.856,192.942 942.176,193.328C942.496,193.714 942.885,193.906 943.342,193.906ZM336.658,193.906C335.562,193.906 335.013,193.245 335.013,191.923C335.013,191.373 335.173,190.904 335.493,190.519C335.813,190.133 336.201,189.94 336.658,189.94C337.115,189.94 337.504,190.133 337.824,190.519C338.144,190.904 338.304,191.373 338.304,191.923C338.304,192.474 338.144,192.942 337.824,193.328C337.504,193.714 337.115,193.906 336.658,193.906ZM538.956,176.027L548.828,193.543L565.006,193.543C566.194,193.543 566.788,192.827 566.788,191.395C566.788,189.963 566.194,189.246 565.006,189.246L550.747,189.246L542.247,174.044C542.155,173.934 542.11,173.851 542.11,173.796C542.11,173.741 542.064,173.658 541.973,173.548C541.333,172.667 540.556,172.501 539.642,173.052C539.185,173.273 538.911,173.686 538.819,174.292C538.728,174.898 538.773,175.476 538.956,176.027ZM573.506,191.229C573.506,190.458 573.3,189.852 572.889,189.412C572.478,188.971 572.044,188.751 571.587,188.751C571.038,188.751 570.558,188.971 570.147,189.412C569.736,189.852 569.53,190.458 569.53,191.229C569.53,191.78 569.736,192.304 570.147,192.799C570.558,193.295 571.038,193.543 571.587,193.543C572.044,193.543 572.478,193.295 572.889,192.799C573.3,192.304 573.506,191.78 573.506,191.229ZM844.832,191.229C844.832,192.662 845.426,193.378 846.614,193.378L887.608,193.378C892.269,193.378 896.473,191.78 900.221,188.585C900.769,188.145 901.044,187.539 901.044,186.768C901.044,185.225 900.449,184.454 899.261,184.454C898.987,184.454 898.667,184.564 898.301,184.785C895.102,187.649 891.538,189.081 887.608,189.081L846.614,189.081C845.426,189.081 844.832,189.797 844.832,191.229ZM372.651,191.229C372.651,192.662 373.245,193.378 374.433,193.378L415.427,193.378C420.089,193.378 424.293,191.78 428.04,188.585C428.589,188.145 428.863,187.539 428.863,186.768C428.863,185.225 428.269,184.454 427.081,184.454C426.807,184.454 426.487,184.564 426.121,184.785C422.922,187.649 419.357,189.081 415.427,189.081L374.433,189.081C373.245,189.081 372.651,189.797 372.651,191.229ZM685.519,193.378C686.707,193.378 687.301,192.662 687.301,191.229C687.301,189.797 686.707,189.081 685.519,189.081L667.284,189.081C666.096,189.081 665.502,189.797 665.502,191.229C665.502,192.662 666.096,193.378 667.284,193.378L685.519,193.378ZM620.121,193.378C621.4,193.378 622.04,192.662 622.04,191.229C622.04,189.797 621.4,189.081 620.121,189.081L600.515,189.081C599.236,189.081 598.596,189.797 598.596,191.229C598.596,192.662 599.236,193.378 600.515,193.378L620.121,193.378ZM593.66,193.378C595.031,193.378 595.717,192.607 595.717,191.064C595.717,190.403 595.534,189.825 595.168,189.329C594.803,188.833 594.3,188.585 593.66,188.585C593.203,188.585 592.769,188.833 592.358,189.329C591.946,189.825 591.741,190.403 591.741,191.064C591.741,191.725 591.946,192.276 592.358,192.717C592.769,193.157 593.203,193.378 593.66,193.378ZM660.703,193.378C661.983,193.378 662.623,192.607 662.623,191.064C662.623,190.403 662.44,189.825 662.074,189.329C661.709,188.833 661.252,188.585 660.703,188.585C660.155,188.585 659.675,188.833 659.264,189.329C658.852,189.825 658.647,190.403 658.647,191.064C658.647,191.725 658.852,192.276 659.264,192.717C659.675,193.157 660.155,193.378 660.703,193.378ZM643.977,140.664C643.977,139.232 643.383,138.516 642.194,138.516C640.915,138.516 640.275,139.232 640.275,140.664L640.275,182.306L640.412,182.306C640.412,183.738 641.006,184.454 642.194,184.454C643.383,184.454 643.977,183.738 643.977,182.306L643.977,140.664ZM795.612,184.124C796.16,184.124 796.64,183.903 797.051,183.463C797.463,183.022 797.668,182.416 797.668,181.645C797.668,180.984 797.463,180.406 797.051,179.91C796.64,179.414 796.16,179.166 795.612,179.166C795.063,179.166 794.584,179.414 794.172,179.91C793.761,180.406 793.555,180.984 793.555,181.645C793.555,182.416 793.761,183.022 794.172,183.463C794.584,183.903 795.063,184.124 795.612,184.124ZM903.237,178.505C902.049,178.505 901.455,179.166 901.455,180.488C901.455,181.921 902.049,182.637 903.237,182.637C904.425,182.637 905.02,181.921 905.02,180.488C905.02,179.166 904.425,178.505 903.237,178.505ZM431.057,178.505C429.869,178.505 429.274,179.166 429.274,180.488C429.274,181.921 429.869,182.637 431.057,182.637C432.245,182.637 432.839,181.921 432.839,180.488C432.839,179.166 432.245,178.505 431.057,178.505ZM787.66,101.005C786.472,101.005 785.878,101.721 785.878,103.153C785.878,104.695 786.472,105.466 787.66,105.466L793.83,105.466L793.83,173.218C793.83,174.65 794.424,175.366 795.612,175.366C796.891,175.366 797.531,174.65 797.531,173.218L797.531,101.005L787.66,101.005ZM374.433,175.035C375.347,174.815 375.804,174.099 375.804,172.887L375.667,172.557L375.804,172.557L375.256,166.938L375.256,152.066C375.256,150.634 374.616,149.918 373.337,149.918C372.148,149.918 371.554,150.634 371.554,152.066L371.554,166.938L372.24,173.713C372.605,174.925 373.337,175.366 374.433,175.035ZM846.614,175.035C847.528,174.815 847.985,174.099 847.985,172.887L847.848,172.557L847.985,172.557L847.437,166.938L847.437,152.066C847.437,150.634 846.797,149.918 845.517,149.918C844.329,149.918 843.735,150.634 843.735,152.066L843.735,166.938L844.42,173.713C844.786,174.925 845.517,175.366 846.614,175.035ZM722.536,151.57C723.176,151.57 723.679,151.322 724.044,150.827C724.41,150.331 724.593,149.752 724.593,149.091C724.593,147.439 723.907,146.613 722.536,146.613C721.988,146.613 721.508,146.833 721.097,147.274C720.685,147.714 720.48,148.32 720.48,149.091C720.48,149.752 720.685,150.331 721.097,150.827C721.508,151.322 721.988,151.57 722.536,151.57ZM511.536,147.439C511.536,146.007 510.942,145.291 509.753,145.291C508.565,145.291 507.971,146.007 507.971,147.439C507.971,148.871 508.565,149.587 509.753,149.587C510.942,149.587 511.536,148.871 511.536,147.439ZM742.142,149.587C743.513,149.587 744.198,148.816 744.198,147.274C744.198,146.613 744.016,146.034 743.65,145.539C743.284,145.043 742.782,144.795 742.142,144.795C741.685,144.795 741.251,145.043 740.839,145.539C740.428,146.034 740.222,146.613 740.222,147.274C740.222,147.935 740.428,148.486 740.839,148.926C741.251,149.367 741.685,149.587 742.142,149.587ZM546.36,141.16C544.166,143.804 541.561,145.126 538.545,145.126L515.649,145.126C514.461,145.126 513.867,145.897 513.867,147.439C513.867,148.871 514.461,149.587 515.649,149.587L538.545,149.587C540.464,149.587 542.338,149.119 544.166,148.183C545.994,147.246 547.594,145.952 548.965,144.299L549.513,142.647C549.513,141.104 548.919,140.333 547.731,140.333C547.091,140.333 546.634,140.609 546.36,141.16ZM779.16,149.422C780.439,149.422 781.079,148.706 781.079,147.274C781.079,145.731 780.439,144.96 779.16,144.96L748.037,144.96C746.849,144.96 746.255,145.731 746.255,147.274C746.255,148.706 746.849,149.422 748.037,149.422L779.16,149.422ZM373.337,142.812C372.057,142.812 371.417,143.583 371.417,145.126C371.417,146.558 372.057,147.274 373.337,147.274C374.525,147.274 375.119,146.558 375.119,145.126C375.119,143.583 374.525,142.812 373.337,142.812ZM845.517,142.812C844.237,142.812 843.598,143.583 843.598,145.126C843.598,146.558 844.237,147.274 845.517,147.274C846.705,147.274 847.299,146.558 847.299,145.126C847.299,143.583 846.705,142.812 845.517,142.812ZM561.304,145.621C562.949,141.876 563.863,137.965 564.046,133.889C564.229,129.813 563.795,125.902 562.744,122.156C561.692,118.411 560.07,114.968 557.876,111.828C555.683,108.689 552.986,106.182 549.787,104.309C546.314,102.106 542.567,101.005 538.545,101.005L525.932,101.005C525.383,101.005 524.926,101.252 524.561,101.748C524.195,102.244 524.012,102.767 524.012,103.318C524.012,104.86 524.652,105.631 525.932,105.631L538.545,105.631C540.19,105.631 541.835,105.852 543.481,106.292C545.126,106.733 546.725,107.394 548.279,108.275C550.93,109.928 553.192,112.049 555.066,114.637C556.94,117.226 558.311,120.118 559.179,123.313C560.047,126.508 560.436,129.813 560.344,133.228C560.253,136.643 559.567,140.003 558.288,143.308C558.196,143.528 558.151,143.638 558.151,143.638C557.968,144.189 557.945,144.712 558.082,145.208C558.219,145.704 558.471,146.062 558.836,146.282C559.293,146.613 559.773,146.723 560.276,146.613C560.778,146.503 561.121,146.172 561.304,145.621ZM712.802,103.153C712.802,104.695 713.396,105.466 714.584,105.466L720.754,105.466L720.754,140.664C720.754,142.096 721.348,142.812 722.536,142.812C723.816,142.812 724.456,142.096 724.456,140.664L724.456,101.005L714.584,101.005C713.396,101.005 712.802,101.721 712.802,103.153ZM545.811,131.906C545.811,129.482 545.103,127.417 543.686,125.709C542.27,124.001 540.556,123.148 538.545,123.148L501.802,123.148L501.802,140.664L538.545,140.664C540.556,140.664 542.27,139.838 543.686,138.185C545.103,136.533 545.811,134.44 545.811,131.906ZM642.057,135.045C643.337,135.045 643.977,134.329 643.977,132.897C643.977,132.236 643.794,131.658 643.428,131.162C643.063,130.666 642.606,130.419 642.057,130.419C641.6,130.419 641.189,130.666 640.823,131.162C640.458,131.658 640.275,132.236 640.275,132.897C640.275,134.329 640.869,135.045 642.057,135.045ZM427.903,108.771C431.559,110.974 434.713,113.894 437.363,117.529C440.014,121.165 441.934,125.296 443.122,129.923L443.122,130.088C443.579,131.19 444.31,131.63 445.315,131.41C446.229,131.19 446.686,130.474 446.686,129.262L446.686,128.601C445.315,123.313 443.122,118.603 440.105,114.472C437.089,110.341 433.479,107.119 429.274,104.805C428.817,104.585 428.36,104.557 427.903,104.723C427.446,104.888 427.126,105.246 426.944,105.797C426.487,107.009 426.761,108 427.766,108.771L427.903,108.771ZM900.084,108.771C903.74,110.974 906.893,113.894 909.544,117.529C912.195,121.165 914.114,125.296 915.302,129.923L915.302,130.088C915.759,131.19 916.49,131.63 917.496,131.41C918.41,131.19 918.867,130.474 918.867,129.262L918.867,128.601C917.496,123.313 915.302,118.603 912.286,114.472C909.27,110.341 905.659,107.119 901.455,104.805C900.998,104.585 900.541,104.557 900.084,104.723C899.627,104.888 899.307,105.246 899.124,105.797C898.667,107.009 898.941,108 899.947,108.771L900.084,108.771ZM422.556,106.127C423.653,106.127 424.202,105.466 424.202,104.144C424.202,103.593 424.042,103.125 423.722,102.74C423.402,102.354 423.013,102.161 422.556,102.161C422.099,102.161 421.711,102.354 421.391,102.74C421.071,103.125 420.911,103.593 420.911,104.144C420.911,104.695 421.071,105.163 421.391,105.549C421.711,105.934 422.099,106.127 422.556,106.127ZM894.737,106.127C895.834,106.127 896.382,105.466 896.382,104.144C896.382,103.593 896.222,103.125 895.902,102.74C895.582,102.354 895.194,102.161 894.737,102.161C894.28,102.161 893.891,102.354 893.571,102.74C893.252,103.125 893.092,103.593 893.092,104.144C893.092,104.695 893.252,105.163 893.571,105.549C893.891,105.934 894.28,106.127 894.737,106.127ZM612.306,105.631C612.763,105.631 613.197,105.384 613.608,104.888C614.02,104.392 614.225,103.869 614.225,103.318C614.225,102.657 614.02,102.079 613.608,101.583C613.197,101.087 612.763,100.839 612.306,100.839C611.758,100.839 611.278,101.087 610.866,101.583C610.455,102.079 610.249,102.657 610.249,103.318C610.249,103.869 610.455,104.392 610.866,104.888C611.278,105.384 611.758,105.631 612.306,105.631ZM671.123,105.466C671.58,105.466 672.014,105.246 672.425,104.805C672.837,104.365 673.042,103.869 673.042,103.318C673.042,102.657 672.837,102.106 672.425,101.666C672.014,101.225 671.58,101.005 671.123,101.005L618.201,101.005C616.922,101.005 616.282,101.776 616.282,103.318C616.282,104.75 616.922,105.466 618.201,105.466L671.123,105.466ZM521.27,103.318C521.27,101.886 520.676,101.17 519.488,101.17C518.3,101.17 517.705,101.886 517.705,103.318C517.705,104.75 518.3,105.466 519.488,105.466C520.676,105.466 521.27,104.75 521.27,103.318Z" style="fill:url(#_Linear1);fill-rule:nonzero;"/>
        </g>
    </g>
    <defs>
        <linearGradient id="_Linear1" x1="0" y1="0" x2="1" y2="0" gradientUnits="userSpaceOnUse" gradientTransform="matrix(-4.63578e-13,-310.484,310.484,-4.63578e-13,640,407.027)"><stop offset="0" style="stop-color:rgb(0,1,255);stop-opacity:1"/><stop offset="1" style="stop-color:rgb(0,122,255);stop-opacity:1"/></linearGradient>
    </defs>
</svg>
